<svg preserveAspectRatio="none" width="100%" height="100%" overflow="visible" style="display: block;" viewBox="0 0 62.1929 73.3926" fill="none" xmlns="http://www.w3.org/2000/svg">
<g id="Union" filter="url(#filter0_d_0_144)">
<path d="M55.6512 3C58.8038 6.73438 59.4595 13.3133 59.1072 17.9766C58.7415 21.998 57.7532 25.8683 55.9393 29.4961C55.4292 29.6835 55.4293 29.6838 54.7606 29.8496C54.5137 29.9137 54.2668 29.9779 54.0125 30.0439C53.7458 30.1127 53.4787 30.1812 53.2039 30.252C46.3538 32.1238 40.8635 35.5359 36.9315 41.5918C37.3904 42.0507 37.8626 41.9403 38.4979 41.9521C42.1416 41.8951 44.8349 40.0973 47.5877 37.8486C47.4961 39.954 46.5467 41.6342 45.1639 43.208C42.6126 45.5168 39.5064 45.6795 36.2567 45.748C33.5112 45.8479 31.3516 46.4714 29.4432 48.5039C28.7937 49.2679 28.1639 50.0449 27.5389 50.8291C26.8562 51.666 26.1443 52.4622 25.4119 53.2559C24.0027 54.7909 22.6849 56.3841 21.3797 58.0078C21.0834 58.3675 20.7868 58.7276 20.4901 59.0869C20.1806 59.4652 19.8706 59.8442 19.5613 60.2227C19.4163 60.3969 19.2713 60.5714 19.1219 60.751C17.9538 62.1911 16.7918 63.6617 16.7528 65.5723C16.8006 65.8559 16.8479 66.1404 16.8973 66.4326C17.1444 67.935 17.1443 67.9353 16.6912 68.75C15.8488 69.5827 14.8655 69.6567 13.7117 69.6504C12.5565 69.4433 11.6366 68.8131 10.6336 68.2266C9.58671 67.6499 8.74182 67.3729 7.55549 67.2246C6.95753 67.4376 6.95702 67.4371 6.69123 68.0879C6.45518 68.8532 6.28245 69.6071 6.11506 70.3926C5.14111 69.9918 4.72215 69.5853 4.18928 68.6826C4.06936 68.484 3.94954 68.2847 3.826 68.0801C3.09131 66.7007 3.01694 65.2965 3.23517 63.7686C3.71752 62.8687 4.32588 62.2149 5.25178 61.752C5.8748 61.6674 6.49932 61.5912 7.12385 61.5186C10.617 61.02 12.7309 59.7854 15.3319 57.4326C15.5525 57.2357 15.5521 57.2351 15.7772 57.0342C18.8125 54.3097 21.6788 51.4024 24.5653 48.5225C24.7623 48.3262 24.9599 48.13 25.1629 47.9277C27.9324 45.185 27.9325 45.1848 30.5379 42.2881C30.8838 41.8805 30.8839 41.8805 31.4598 41.3047C30.681 41.0081 30.6805 41.008 29.7313 41.0166C29.0669 41.5756 28.5828 42.0659 28.0399 42.7266C27.7376 43.0749 27.4347 43.4229 27.1317 43.7705C26.9859 43.9408 26.8395 44.1106 26.6893 44.2861C26.153 44.8995 25.5821 45.4705 24.9979 46.0381C24.367 46.6573 23.8135 47.2582 23.2518 47.9463C22.5053 48.8234 21.7081 49.5307 20.8338 50.2754C20.2207 50.8146 19.6472 51.3777 19.075 51.96C18.1938 52.853 17.2828 53.683 16.3289 54.4971C15.7369 55.0234 15.1647 55.5607 14.5945 56.1104C14.4083 56.2886 14.222 56.4668 14.0301 56.6504C13.6584 57.0071 13.2881 57.3663 12.9207 57.7275C11.1936 59.3778 9.60408 60.4584 7.1551 60.4131C6.85445 60.3986 6.85427 60.3986 6.54767 60.3838C6.33829 60.3786 6.12864 60.3735 5.91291 60.3682C5.40428 60.3548 4.89584 60.3347 4.38752 60.3125C4.33127 58.6498 4.3315 58.6497 4.83771 58.0625C5.53956 57.7206 5.53954 57.7206 6.49885 57.625C7.68449 57.4091 8.13716 57.1038 9.03107 56.3164C9.30203 56.0826 9.5732 55.8483 9.85236 55.6074C9.9939 55.4824 10.1362 55.3573 10.282 55.2285C10.8876 54.6962 11.5036 54.1769 12.1199 53.6572C12.4387 53.3884 12.7572 53.1186 13.075 52.8486C14.0519 52.019 15.0381 51.2025 16.033 50.3945C21.5192 45.9131 26.2542 41.7254 29.325 35.1992C29.7311 34.3926 29.7315 34.3923 30.3074 33.8164C30.7349 33.8574 31.1612 33.914 31.5858 33.9785C32.7037 34.0075 33.1037 33.881 34.0008 33.1836C34.8237 32.3744 35.5835 31.5059 36.3553 30.6484C36.7084 30.3287 37.0678 30.015 37.4354 29.7119C40.5429 27.0383 43.3324 24.0755 45.7713 20.7842C46.1493 20.2776 46.536 19.7787 46.9246 19.2803C50.4161 14.743 53.0048 9.76305 55.075 4.44043C55.2668 3.96034 55.4589 3.47987 55.6512 3ZM32.6112 47.6406C33.8419 47.0253 35.0342 47.0255 36.3553 47.3525C37.7449 48.3497 38.8586 49.5684 40.0096 50.8262C40.3217 51.1566 40.6344 51.4865 40.9481 51.8154C41.4047 52.2945 41.8603 52.7744 42.3133 53.2568C43.2842 54.2876 44.2901 55.245 45.3738 56.1582C46.0804 56.7563 46.7384 57.4041 47.407 58.0439C49.8574 60.274 52.4223 61.3655 55.7049 61.5547C56.7875 61.6478 57.0538 61.7234 57.9549 62.418C58.9655 63.7759 59.2263 64.5634 58.9949 66.2305C58.5598 67.9794 57.7208 69.38 56.2274 70.3926C56.1817 70.2122 56.1357 70.0315 56.0887 69.8457C56.0215 69.6103 55.9548 69.3743 55.8856 69.1318C55.8221 68.8982 55.7585 68.6646 55.6932 68.4238C55.4037 67.7469 55.4031 67.7462 54.6981 67.3994C53.7654 67.1883 53.3854 67.3078 52.5194 67.6924C52.2684 67.8015 52.0172 67.911 51.7586 68.0234C51.1429 68.3274 50.5769 68.6559 49.9988 69.0244C48.7539 69.6699 48.11 69.6647 46.7235 69.5283C45.9141 69.2378 45.6669 69.1438 45.283 68.376C45.3073 67.6978 45.3383 67.0195 45.3729 66.3418C45.4106 64.1975 44.9643 63.0569 43.5555 61.4639C43.3149 61.1743 43.0738 60.8852 42.826 60.5869C42.2879 59.9401 41.7438 59.2991 41.1942 58.6621C40.4648 57.8153 39.7578 56.9516 39.0555 56.082C38.2291 55.066 37.3804 54.0808 36.4988 53.1123C35.5609 52.0784 34.6427 51.0311 33.7449 49.9619C33.5279 49.704 33.3104 49.4464 33.0867 49.1807C32.6109 48.5046 32.6112 48.5042 32.6112 47.6406ZM38.659 47.0645C41.4284 46.5757 41.4288 46.5753 42.5838 47.3975C43.1246 47.8492 43.6467 48.3166 44.1668 48.792C44.5535 49.1366 44.9406 49.4813 45.3279 49.8252C45.5169 49.994 45.7065 50.163 45.9012 50.3369C46.604 50.9572 47.3267 51.5512 48.0555 52.1406C49.4131 53.2398 50.7479 54.3635 52.076 55.498C52.4977 55.8572 52.9227 56.2129 53.3475 56.5684C53.546 56.735 53.7445 56.9016 53.949 57.0732C54.5823 57.4864 55.0888 57.6105 55.8309 57.7383C57.0298 57.9474 57.0303 57.9474 57.6668 58.584C57.7028 59.484 57.7028 59.4845 57.6668 60.3125C56.9889 60.3361 56.3118 60.3528 55.6336 60.3662C55.2561 60.3762 54.8781 60.3862 54.4891 60.3965C52.3366 60.2374 51.0291 59.3151 49.5487 57.8643C49.2212 57.5527 48.8939 57.241 48.5662 56.9297C48.4028 56.7727 48.2385 56.6159 48.0701 56.4541C47.3376 55.755 46.5901 55.0727 45.8416 54.3906C45.5581 54.1308 45.2745 53.8703 44.991 53.6104C44.4011 53.0701 43.8094 52.5315 43.2176 51.9932C39.3368 48.459 39.3363 48.4587 38.659 47.6406V47.0645ZM14.8904 38.1758C15.512 38.6503 16.1399 39.1149 16.7713 39.5762C16.9476 39.7064 17.1239 39.8365 17.3055 39.9707C18.9956 41.1275 20.8579 41.6328 22.8192 42.168C22.4212 43.0925 21.9768 43.6221 21.199 44.2559C21.0172 44.4058 20.8356 44.5564 20.6483 44.7109C20.5095 44.8222 20.3703 44.9332 20.2274 45.0479C17.4699 43.8231 15.9318 42.0567 14.6649 39.3418C14.467 38.7124 14.4676 38.712 14.4676 37.8486C14.607 37.9565 14.7468 38.0646 14.8904 38.1758ZM6.11506 3C6.85844 3.37169 6.87638 3.63594 7.15998 4.4043C7.24863 4.63804 7.33817 4.87148 7.42951 5.1123C7.52458 5.36552 7.61965 5.619 7.7176 5.87988C10.3638 12.6838 14.3211 18.8059 19.2762 24.165C19.6509 24.5741 20.023 24.9858 20.3836 25.4072C21.6021 26.831 22.8968 28.1226 24.2772 29.3887C24.8597 29.9266 25.4421 30.4653 26.0203 31.0078C26.3749 31.3373 26.7348 31.6612 27.1004 31.9785C27.5876 32.4186 27.5878 32.4191 28.2908 33.2402C28.353 34.542 27.4852 35.8534 26.9051 37.002C26.8062 37.2056 26.7072 37.4094 26.6053 37.6191C26.045 38.7387 25.5098 39.608 24.5477 40.4404C24.3625 40.2037 24.1769 39.9666 23.9862 39.7227C20.6371 35.5418 16.5399 32.4459 11.3113 31.0225C11.0149 30.9411 10.7183 30.8602 10.4129 30.7764C9.82868 30.6224 9.24111 30.479 8.65119 30.3486C7.49586 30.051 6.67166 29.837 5.91779 28.8779C5.53188 28.1356 5.23371 27.4074 4.96271 26.6162C4.84544 26.2873 4.84606 26.2868 4.72639 25.9512C4.52205 25.3368 4.34203 24.7209 4.17072 24.0967C4.11095 23.8906 4.05164 23.684 3.99006 23.4717C2.08074 16.7581 3.00987 9.21037 6.11506 3Z" fill="url(#paint0_linear_0_144)"/>
</g>
<defs>
<filter id="filter0_d_0_144" x="-1.023e-07" y="0" width="62.1929" height="73.3926" filterUnits="userSpaceOnUse" color-interpolation-filters="sRGB">
<feFlood flood-opacity="0" result="BackgroundImageFix"/>
<feColorMatrix in="SourceAlpha" type="matrix" values="0 0 0 0 0 0 0 0 0 0 0 0 0 0 0 0 0 0 127 0" result="hardAlpha"/>
<feOffset/>
<feGaussianBlur stdDeviation="1.5"/>
<feComposite in2="hardAlpha" operator="out"/>
<feColorMatrix type="matrix" values="0 0 0 0 0.373347 0 0 0 0 0.303656 0 0 0 0 0 0 0 0 1 0"/>
<feBlend mode="normal" in2="BackgroundImageFix" result="effect1_dropShadow_0_144"/>
<feBlend mode="normal" in="SourceGraphic" in2="effect1_dropShadow_0_144" result="shape"/>
</filter>
<linearGradient id="paint0_linear_0_144" x1="31.0962" y1="3" x2="31.0962" y2="70.3926" gradientUnits="userSpaceOnUse">
<stop stop-color="#F9F8F3"/>
<stop offset="1" stop-color="#E7BA90"/>
</linearGradient>
</defs>
</svg>
