<svg preserveAspectRatio="none" width="100%" height="100%" overflow="visible" style="display: block;" viewBox="0 0 24.5824 22.544" fill="none" xmlns="http://www.w3.org/2000/svg">
<g id="Vector" filter="url(#filter0_d_0_80)">
<path d="M1.10938 1C1.36061 1.24405 1.58991 1.48065 1.80988 1.7545C2.06048 2.0567 2.34228 2.30704 2.65138 2.548C2.70907 2.59301 2.76675 2.63801 2.82618 2.68438C3.79418 3.41945 4.86962 3.99754 5.92138 4.60188C9.54465 6.68824 9.54465 6.68824 10.7364 8.43925C10.9081 8.68983 11.0932 8.92485 11.2854 9.16C11.3805 8.91718 11.4076 8.74732 11.3117 8.50131C11.1999 8.29183 11.0804 8.08985 10.9554 7.888C10.8895 7.77919 10.8895 7.77919 10.8224 7.66818C10.3742 6.94367 9.87081 6.30128 9.17338 5.8C9.78563 5.75627 10.2029 5.82502 10.7094 6.184C11.2212 6.63528 11.5029 7.15059 11.7613 7.77588C11.8609 8.02591 11.8609 8.02591 12.0534 8.296C12.3494 8.32002 12.3494 8.32002 12.6294 8.296C12.6621 8.209 12.6947 8.12201 12.7284 8.03238C13.0665 7.18257 13.4423 6.32057 14.3094 5.89C14.7012 5.78506 15.0096 5.77875 15.4134 5.8C15.35 5.84554 15.2867 5.89108 15.2214 5.938C14.5615 6.50164 14.0778 7.14596 13.6254 7.882C13.581 7.95157 13.5366 8.02114 13.4909 8.09282C13.2324 8.52355 13.2324 8.52355 13.2751 9.01788C13.3155 9.09646 13.3558 9.17504 13.3974 9.256C13.4442 9.17457 13.4909 9.09315 13.5391 9.00925C14.3728 7.60989 15.473 6.56247 16.8534 5.704C16.9069 5.67059 16.9603 5.63718 17.0154 5.60275C17.6849 5.18666 18.3688 4.7964 19.0547 4.40805C20.636 3.51167 22.0924 2.58362 23.2951 1.20063C23.3553 1.13442 23.4154 1.06821 23.4774 1C23.5091 1 23.5407 1 23.5734 1C23.6709 3.77154 22.9833 5.98577 21.1014 8.074C20.2304 9.0077 19.2203 9.70315 18.1014 10.312C18.9333 10.2731 19.7005 10.1574 20.5014 9.928C20.389 10.5603 19.8524 11.0168 19.3554 11.386C18.7188 11.7813 17.8225 12.1861 17.0626 12.1083C16.8512 12.0373 16.6673 11.9501 16.4694 11.848C16.2781 11.7819 16.0862 11.7175 15.8934 11.656C15.9607 11.7106 16.028 11.7651 16.0974 11.8214C16.2877 11.9763 16.4776 12.1318 16.667 12.2879C16.8291 12.4211 16.9919 12.5534 17.1568 12.6831C18.6983 13.9398 19.7237 15.9507 19.9843 17.9084C20.1048 19.1154 20.0392 20.4186 19.5414 21.544C19.478 21.544 19.4147 21.544 19.3494 21.544C19.3109 21.4592 19.2724 21.3745 19.2328 21.2871C18.8533 20.4761 18.416 19.8134 17.8134 19.144C17.7083 19.0233 17.7083 19.0233 17.6011 18.9003C17.161 18.406 16.702 17.9351 16.2294 17.4719C16.1321 17.3761 16.0348 17.2803 15.9375 17.1845C15.7451 16.9952 15.5514 16.8074 15.3569 16.6203C14.4409 15.7286 13.7325 14.7494 13.2054 13.576C13.186 13.6864 13.1667 13.7968 13.1467 13.9105C13.0745 14.3218 13.0018 14.7329 12.9288 15.144C12.8974 15.3216 12.8661 15.4993 12.835 15.6769C12.7901 15.9329 12.7447 16.1889 12.6991 16.4448C12.6854 16.5237 12.6717 16.6026 12.6576 16.6839C12.5825 17.1024 12.4885 17.4953 12.3414 17.896C12.1079 17.6625 12.0959 17.5318 12.0324 17.2109C12.0023 17.0602 12.0023 17.0602 11.9715 16.9066C11.951 16.7995 11.9305 16.6924 11.9094 16.582C11.8881 16.4738 11.8669 16.3656 11.845 16.2541C11.7072 15.5396 11.5926 14.827 11.5119 14.104C11.5027 13.8702 11.5027 13.8702 11.3814 13.768C11.3521 13.8286 11.3227 13.8893 11.2925 13.9518C10.5552 15.3931 9.45398 16.4994 8.30338 17.614C7.24291 18.6414 6.18786 19.6637 5.51338 20.998C5.45968 21.1026 5.40597 21.2071 5.35063 21.3149C5.31326 21.3905 5.27589 21.4661 5.23738 21.544C5.04538 21.448 5.04538 21.448 4.96701 21.2279C4.94337 21.1362 4.91974 21.0445 4.89538 20.95C4.8715 20.8595 4.84762 20.7691 4.82301 20.6759C4.34662 18.6151 4.74197 16.4451 5.84938 14.65C6.67401 13.4276 7.60144 12.5162 8.78938 11.656C8.65326 11.6996 8.51729 11.7437 8.38138 11.788C8.30565 11.8125 8.22991 11.837 8.15188 11.8623C7.92582 11.9364 7.92582 11.9364 7.73526 12.0531C7.26531 12.254 6.66563 12.0092 6.20863 11.8439C5.38967 11.4914 4.70464 11.0414 4.18138 10.312C4.12101 10.1028 4.12101 10.1028 4.08538 9.928C4.15295 9.94768 4.22052 9.96735 4.29013 9.98763C5.05428 10.1961 5.79111 10.2781 6.58138 10.312C6.49661 10.2666 6.41185 10.2212 6.32451 10.1744C5.5414 9.74651 4.84555 9.28205 4.18138 8.68C4.11124 8.61693 4.11124 8.61693 4.03968 8.55259C2.38901 7.04986 1.12725 4.90572 1.01338 2.632C1.00616 2.36199 1.00289 2.0921 1.00138 1.822C1.00093 1.75255 1.00047 1.68309 1 1.61153C1.00162 1.10777 1.00162 1.10777 1.10938 1ZM4.08538 6.472C4.22226 6.8982 4.45453 7.18446 4.75738 7.504C4.80462 7.55427 4.85185 7.60455 4.90052 7.65634C6.03755 8.85307 7.37167 9.94232 9.07738 10.12C9.3656 10.1267 9.65316 10.1258 9.94138 10.12C9.73843 9.34623 9.36905 8.82892 8.88538 8.2C8.69219 7.93887 8.50086 7.67639 8.30938 7.414C8.21742 7.28859 8.12543 7.16322 8.03338 7.03788C7.96606 6.94618 7.89874 6.85448 7.82938 6.76C7.70317 7.16665 7.79928 7.38039 7.96138 7.774C8.00569 7.88302 8.04999 7.99205 8.09563 8.10438C8.13449 8.19929 8.17335 8.29421 8.21338 8.392C8.2609 8.53456 8.2609 8.53456 8.30938 8.68C7.90914 8.47447 7.50915 8.26845 7.10938 8.062C7.05046 8.03157 6.99153 8.00114 6.93082 7.96979C6.14715 7.56457 5.36891 7.15199 4.60457 6.71109C4.36 6.54412 4.36 6.54412 4.08538 6.472ZM19.7454 6.844C19.0476 7.24488 18.3359 7.61045 17.6134 7.96464C17.1581 8.18846 16.715 8.4233 16.2774 8.68C16.3109 8.60575 16.3445 8.5315 16.379 8.455C16.6297 7.88111 16.8172 7.38662 16.8534 6.76C16.401 7.19128 16.062 7.69209 15.7014 8.2C15.639 8.2865 15.5766 8.373 15.5124 8.46213C14.9384 9.21988 14.9384 9.21988 14.7414 10.12C16.2109 10.2048 17.6203 9.55259 18.7243 8.61288C19.7853 7.64643 19.7853 7.64643 20.5974 6.472C20.2747 6.472 20.0183 6.68466 19.7454 6.844ZM14.2614 12.52C14.4302 13.6426 15.2864 14.475 16.0429 15.2553C16.241 15.4623 16.4299 15.677 16.6194 15.892C16.9293 16.239 17.2532 16.5685 17.5854 16.894C18.0248 17.3279 18.4116 17.78 18.7734 18.28C18.9374 17.8888 18.7865 17.5722 18.6414 17.2C18.6154 17.1327 18.5893 17.0654 18.5625 16.9961C17.7928 15.0769 16.6128 13.45 14.6728 12.6014C14.4624 12.5089 14.4624 12.5089 14.2614 12.52ZM8.04351 13.8295C6.98424 14.95 6.07466 16.3765 5.71738 17.896C5.74462 18.1166 5.74462 18.1166 5.81338 18.28C5.87984 18.1997 5.94629 18.1194 6.01476 18.0366C6.55618 17.3899 7.11477 16.7724 7.71538 16.18C8.71823 15.1898 9.77415 14.1262 10.3254 12.808C10.3254 12.713 10.3254 12.6179 10.3254 12.52C9.53873 12.52 8.57537 13.3124 8.04351 13.8295Z" fill="url(#paint0_linear_0_80)"/>
</g>
<defs>
<filter id="filter0_d_0_80" x="0" y="0" width="24.5824" height="22.544" filterUnits="userSpaceOnUse" color-interpolation-filters="sRGB">
<feFlood flood-opacity="0" result="BackgroundImageFix"/>
<feColorMatrix in="SourceAlpha" type="matrix" values="0 0 0 0 0 0 0 0 0 0 0 0 0 0 0 0 0 0 127 0" result="hardAlpha"/>
<feOffset/>
<feGaussianBlur stdDeviation="0.5"/>
<feComposite in2="hardAlpha" operator="out"/>
<feColorMatrix type="matrix" values="0 0 0 0 0.373347 0 0 0 0 0.303656 0 0 0 0 0 0 0 0 1 0"/>
<feBlend mode="normal" in2="BackgroundImageFix" result="effect1_dropShadow_0_80"/>
<feBlend mode="normal" in="SourceGraphic" in2="effect1_dropShadow_0_80" result="shape"/>
</filter>
<linearGradient id="paint0_linear_0_80" x1="12.2912" y1="1" x2="12.2912" y2="21.544" gradientUnits="userSpaceOnUse">
<stop stop-color="#F9F8F3"/>
<stop offset="1" stop-color="#E7BA90"/>
</linearGradient>
</defs>
</svg>
