<svg preserveAspectRatio="none" width="100%" height="100%" overflow="visible" style="display: block;" viewBox="0 0 21.6234 23.0794" fill="none" xmlns="http://www.w3.org/2000/svg">
<g id="Union" filter="url(#filter0_d_0_74)">
<path d="M18.0081 4.51105C19.0877 5.46584 19.3782 7.40751 19.4691 8.76691C19.5313 11.1348 18.7014 13.3219 17.0824 15.0452C16.1253 16.0208 15.055 16.6827 13.7835 17.1829H13.4954C13.5271 17.4046 13.5595 17.6264 13.5921 17.8548C16.2287 16.7687 18.2226 15.1584 19.3519 12.4788C20.0938 10.6176 20.0404 8.8777 19.8314 6.91144C20.5656 7.64563 20.6002 9.43979 20.6234 10.4154C20.5589 13.1346 19.5131 15.4589 17.6234 17.3753C17.5476 17.4523 17.4719 17.5294 17.3939 17.6087C16.333 18.6237 14.8633 19.4823 13.4066 19.7552C12.5655 19.9209 12.1667 20.1418 11.6878 20.8304C11.5838 20.9887 11.4838 21.1497 11.3841 21.3109C11.3297 21.3941 11.2752 21.478 11.2191 21.5638C11.11 21.7331 11.0057 21.9058 10.9036 22.0794C10.5235 21.9527 10.462 21.7847 10.2493 21.4495C10.1534 21.2991 10.058 21.1479 9.9593 20.9993C9.87953 20.8783 9.80257 20.7554 9.72786 20.6312C9.34836 20.0498 8.98752 19.9155 8.32356 19.7747C5.85393 19.1579 3.7148 17.6198 2.37727 15.4407C1.05506 13.169 0.660761 10.5335 1.29915 7.97199C1.47991 7.30562 1.48037 7.30527 1.59212 7.00715L1.78352 6.91144C1.76968 7.01577 1.75579 7.12036 1.74153 7.22785C1.4034 9.86197 1.78644 12.3213 3.34895 14.5179C3.55493 14.7754 3.76784 15.0208 3.99153 15.263C4.05128 15.3304 4.11161 15.3976 4.17317 15.4671C5.16188 16.5263 6.5502 17.3289 7.92805 17.7591C8.02306 17.4741 8.02251 17.4738 8.11946 17.1829C7.9969 17.1681 7.99667 17.1678 7.87141 17.1527C6.24133 16.8243 4.69844 15.439 3.73958 14.1468C2.378 12.0898 1.82866 9.71884 2.31282 7.28058C2.53534 6.28819 2.93198 5.34703 3.51204 4.51105C3.54371 4.57439 3.57511 4.63818 3.60774 4.70344C3.54092 4.89992 3.46564 5.0938 3.38606 5.28547C2.59216 7.28467 2.72028 9.34039 3.51204 11.3275C4.48705 13.476 6.25965 14.8102 8.40755 15.6468C8.5501 15.6943 8.55021 15.695 8.69563 15.7435C8.71068 15.6583 8.71055 15.6575 8.72591 15.5706C8.84552 14.9312 9.02336 14.3234 9.21809 13.7034C9.81523 11.7543 10.2505 9.75918 10.7122 7.77473H10.9036C10.9369 7.92296 10.9371 7.92334 10.971 8.07453C11.347 9.7478 11.724 11.4205 12.182 13.0736C12.2119 13.1818 12.2419 13.2901 12.2728 13.4017C12.4457 14.0143 12.6372 14.6174 12.848 15.2181C12.9195 15.455 12.9202 15.4555 12.9202 15.7435C14.3794 15.1993 15.5575 14.5447 16.6634 13.4388C16.7287 13.3735 16.7944 13.3088 16.8616 13.2415C18.179 11.8301 18.7562 9.86455 18.7757 7.96711C18.7251 7.02455 18.5346 6.18462 18.2113 5.29914C18.1189 5.03502 18.0543 4.78633 18.0081 4.51105ZM10.6429 12.9095C10.5556 13.2119 10.4687 13.5144 10.3812 13.8167C10.342 13.9523 10.3021 14.0883 10.263 14.2239C10.0605 14.9254 9.85602 15.626 9.63704 16.3226C9.60557 16.423 9.57473 16.5238 9.54231 16.6273C9.48336 16.814 9.4233 17.0006 9.36262 17.1868C9.33643 17.27 9.30954 17.3532 9.28255 17.4388C9.25945 17.5102 9.23701 17.5821 9.21321 17.6556C9.16998 17.8876 9.18895 18.0194 9.2718 18.2396C9.43713 18.4382 9.60265 18.6235 9.78157 18.8089C9.87534 18.9076 9.96934 19.0068 10.0628 19.1058C10.1076 19.1532 10.1524 19.2005 10.1986 19.2493C10.3802 19.4483 10.5472 19.6586 10.7122 19.8714C11.0703 19.7281 11.2379 19.528 11.4681 19.223C11.6989 18.9197 11.9172 18.6653 12.2122 18.4251C12.4623 18.18 12.4621 18.1793 12.43 17.9603C12.4122 17.8923 12.3947 17.8242 12.3763 17.7542C12.3566 17.6775 12.336 17.6008 12.3157 17.5218C12.2932 17.4418 12.2706 17.3611 12.2474 17.2786C12.226 17.202 12.205 17.1252 12.1829 17.0462C12.1119 16.7998 12.038 16.5542 11.9632 16.3089C11.9363 16.2197 11.9089 16.1303 11.8812 16.0384C11.8245 15.8512 11.7672 15.6639 11.7103 15.4769C11.6233 15.1909 11.5369 14.9046 11.4505 14.6185C11.3952 14.4359 11.3399 14.2532 11.2845 14.0706C11.2588 13.9856 11.2338 13.9004 11.2074 13.8128C11.0891 13.4251 10.9678 13.0444 10.8079 12.6712H10.7122C10.6896 12.7498 10.6662 12.8285 10.6429 12.9095ZM9.48372 1.09504C10.6063 0.927918 11.8484 0.963786 12.9193 1.34308C13.0011 1.36976 13.083 1.39666 13.1673 1.42414C14.753 1.99097 15.9488 3.24144 16.6868 4.72101C17.3605 6.25215 17.4775 8.02716 16.8763 9.60383C16.4404 10.6292 15.8479 11.7415 14.8392 12.2874C14.9542 12.0557 15.0711 11.8249 15.1898 11.595C15.2487 11.4797 15.3086 11.3646 15.3675 11.2493C15.397 11.1927 15.426 11.1358 15.4564 11.0775C16.0833 9.84373 16.1249 8.49479 15.7025 7.18976C15.4482 6.52693 15.1181 5.99945 14.6468 5.47101C14.5957 5.41099 14.5442 5.35122 14.4915 5.28937C14.0424 4.79723 13.5198 4.50158 12.9193 4.22297C12.8346 4.183 12.7496 4.14306 12.6624 4.10187C11.5043 3.63578 10.0432 3.67244 8.87727 4.09504C8.39867 4.31563 7.96952 4.58724 7.54329 4.89582C7.44035 4.96906 7.33684 5.04204 7.23079 5.1175C6.22467 6.10087 5.65502 7.45463 5.59309 8.85578C5.62991 10.015 6.00308 10.9221 6.58333 11.9036C6.6486 12.0308 6.71278 12.1586 6.77473 12.2874C5.67566 11.6955 5.02125 10.4795 4.63899 9.33527C4.12392 7.58307 4.30208 5.80974 5.17317 4.19855C6.18304 2.56144 7.63969 1.58209 9.48372 1.09504Z" fill="url(#paint0_linear_0_74)"/>
</g>
<defs>
<filter id="filter0_d_0_74" x="4.94765e-10" y="-3.73111e-08" width="21.6234" height="23.0794" filterUnits="userSpaceOnUse" color-interpolation-filters="sRGB">
<feFlood flood-opacity="0" result="BackgroundImageFix"/>
<feColorMatrix in="SourceAlpha" type="matrix" values="0 0 0 0 0 0 0 0 0 0 0 0 0 0 0 0 0 0 127 0" result="hardAlpha"/>
<feOffset/>
<feGaussianBlur stdDeviation="0.5"/>
<feComposite in2="hardAlpha" operator="out"/>
<feColorMatrix type="matrix" values="0 0 0 0 0.373347 0 0 0 0 0.303656 0 0 0 0 0 0 0 0 1 0"/>
<feBlend mode="normal" in2="BackgroundImageFix" result="effect1_dropShadow_0_74"/>
<feBlend mode="normal" in="SourceGraphic" in2="effect1_dropShadow_0_74" result="shape"/>
</filter>
<linearGradient id="paint0_linear_0_74" x1="10.812" y1="1.00031" x2="10.812" y2="22.0787" gradientUnits="userSpaceOnUse">
<stop stop-color="#F9F8F3"/>
<stop offset="1" stop-color="#E7BA90"/>
</linearGradient>
</defs>
</svg>
