<svg preserveAspectRatio="none" width="100%" height="100%" overflow="visible" style="display: block;" viewBox="0 0 64.1626 71.6641" fill="none" xmlns="http://www.w3.org/2000/svg">
<g id="Union" filter="url(#filter0_d_0_140)">
<path d="M32.6641 31.7998C32.1362 32.2952 31.6109 32.739 31.0439 33.1855C27.5998 36.0063 24.5865 39.1151 22.0078 42.7441C21.8907 42.9045 21.7739 43.0653 21.6533 43.2305C16.9258 49.7337 14.2683 57.0831 14.0518 65.1182C14.0406 65.4609 14.03 65.8041 14.0186 66.1572C13.9917 66.9927 13.967 67.8284 13.9443 68.6641C12.4112 67.371 10.9368 66.0272 9.47949 64.6494C9.16864 64.3572 9.16802 64.357 8.85059 64.0586C7.86707 63.1311 6.89393 62.1957 5.94141 61.2363C5.2775 60.5678 4.60502 59.9274 3.88184 59.3223C3.59081 59.0788 3.29984 58.8349 3 58.584C3.97621 55.5367 7.54683 53.6474 10.1182 51.9971C10.8359 51.532 11.5316 51.0327 12.2158 50.5195C10.5052 50.8997 8.79467 51.2802 7.03223 51.6719C9.24867 47.1822 12.401 44.906 16.8242 42.7441C15.3755 42.8954 13.9385 43.0628 12.5039 43.3203C15.9069 37.6981 21.8568 33.5739 28.1738 31.9043C29.6627 31.542 31.1601 31.2284 32.6641 30.9355V31.7998ZM58.2959 3C62.0273 9.94299 61.7488 18.6874 59.5537 26.0781C58.2291 30.3099 56.0509 34.2401 53.1123 37.5596C52.8792 37.8339 52.6455 38.1089 52.4053 38.3916C49.4823 41.7669 46.0075 44.2507 42.168 46.4883C41.8457 46.6898 41.8455 46.6899 41.5166 46.8955C40.9802 47.2261 40.9798 47.2259 40.1523 47.6396L39.2881 47.3516C39.46 46.9543 39.4603 46.9543 39.6357 46.5488C41.3683 42.4499 42.8398 37.9232 41.3037 33.5283C40.3011 31.4683 39.0912 30.302 36.9658 29.4238C32.2828 27.8504 27.3383 29.7731 23.0957 31.8271C22.1053 32.3324 21.1606 32.9037 20.2285 33.5088C19.7043 33.8159 19.7039 33.8154 19.1279 33.8154C19.5435 32.658 20.1104 31.7099 20.7842 30.6836C23.5403 26.3317 25.433 20.9961 24.4004 15.8271C23.7903 13.6371 22.897 11.6187 21.2354 10.0225C20.8562 9.62421 20.8555 9.62385 20.8555 9.04785C21.9917 9.41294 23.0852 9.82204 24.1777 10.3018C29.929 12.7994 35.69 15.2318 41.9883 15.834C42.3327 15.8755 42.6774 15.9171 43.0322 15.96L43.3203 16.5361C39.8035 17.9135 36.1036 18.1735 32.376 18.5518C38.7708 19.8596 45.2467 18.8449 50.8076 15.3838C55.0273 12.4289 56.7456 7.87052 57.7197 3H58.2959Z" fill="url(#paint0_linear_0_140)"/>
</g>
<defs>
<filter id="filter0_d_0_140" x="0" y="0" width="64.1626" height="71.6641" filterUnits="userSpaceOnUse" color-interpolation-filters="sRGB">
<feFlood flood-opacity="0" result="BackgroundImageFix"/>
<feColorMatrix in="SourceAlpha" type="matrix" values="0 0 0 0 0 0 0 0 0 0 0 0 0 0 0 0 0 0 127 0" result="hardAlpha"/>
<feOffset/>
<feGaussianBlur stdDeviation="1.5"/>
<feComposite in2="hardAlpha" operator="out"/>
<feColorMatrix type="matrix" values="0 0 0 0 0.373347 0 0 0 0 0.303656 0 0 0 0 0 0 0 0 1 0"/>
<feBlend mode="normal" in2="BackgroundImageFix" result="effect1_dropShadow_0_140"/>
<feBlend mode="normal" in="SourceGraphic" in2="effect1_dropShadow_0_140" result="shape"/>
</filter>
<linearGradient id="paint0_linear_0_140" x1="32.0813" y1="3" x2="32.0813" y2="68.6641" gradientUnits="userSpaceOnUse">
<stop stop-color="#F9F8F3"/>
<stop offset="1" stop-color="#E7BA90"/>
</linearGradient>
</defs>
</svg>
