<svg preserveAspectRatio="none" width="100%" height="100%" overflow="visible" style="display: block;" viewBox="0 0 72.5283 66.7676" fill="none" xmlns="http://www.w3.org/2000/svg">
<g id="Union" filter="url(#filter0_d_0_147)">
<path d="M23.1602 7.03223C24.6345 10.9467 26.983 13.8573 30.8047 15.6699C31.6051 15.9982 32.4187 16.2657 33.2402 16.5361C33.5119 18.3886 33.7828 20.2412 34.0537 22.0938C34.1455 22.7209 34.2371 23.3485 34.3291 23.9756C34.9504 28.2125 35.55 32.4522 36.1201 36.6963C36.1656 36.3267 36.1655 36.3263 36.2119 35.9492C36.5001 33.6254 36.7998 31.3031 37.1123 28.9824C37.2726 27.7894 37.4285 26.5962 37.5742 25.4014C37.715 24.2477 37.8668 23.0955 38.0273 21.9443C38.0865 21.5054 38.1417 21.0659 38.1924 20.626C38.5944 17.17 38.595 17.1696 39.6025 16.3096C40.2667 16.0125 40.8845 15.8339 41.5918 15.6719C45.1619 13.7033 47.6924 11.2391 49.1006 7.32812C49.5107 5.88095 49.7301 4.49947 49.9443 3H62.9043C62.9043 8.64742 62.9038 8.64781 62.3818 10.6504C62.3104 10.9587 62.3102 10.9589 62.2373 11.2734C61.8961 12.6909 61.4202 14.0272 60.8877 15.3838C63.6418 18.4845 66.5819 21.3948 69.5283 24.3115L69.2402 24.8877C62.0453 20.8339 62.0451 20.8341 59.1602 19.1279C58.2144 20.0146 57.4154 20.9452 56.6221 21.9717C55.5719 23.3079 54.4242 24.3918 53.1123 25.4639C54.0079 27.8907 54.9238 30.3076 55.8906 32.707C55.9785 32.9252 56.0667 33.1434 56.1572 33.3682C56.5187 34.2639 56.8811 35.1596 57.2441 36.0547C57.5138 36.7203 57.7825 37.3866 58.0508 38.0527C58.1336 38.2558 58.2165 38.4588 58.3018 38.668C58.872 40.0863 58.8721 40.0867 58.8721 40.7275H58.2959C57.7799 40.0964 57.2978 39.4613 56.8203 38.8018C56.5112 38.3819 56.2012 37.9624 55.8916 37.543C55.7242 37.3156 55.5572 37.0878 55.3848 36.8535C54.3945 35.519 53.3831 34.2002 52.374 32.8799C51.9837 32.3685 51.5934 31.8571 51.2031 31.3457C51.0366 31.1277 50.8698 30.9092 50.6982 30.6846C50.5445 30.4825 50.3908 30.2804 50.2324 30.0723C50.0698 29.8678 49.9068 29.6628 49.7393 29.4521C49.3681 28.9199 49.3682 28.9197 49.3682 28.3438C49.0549 28.4792 48.7417 28.6153 48.4189 28.7549C42.6236 31.2241 42.6229 31.2236 40.1523 31.2236C40.1407 31.459 40.1283 31.695 40.1162 31.9375C39.9193 35.357 39.5034 38.7418 39.0801 42.1396C39.0029 42.7662 38.9256 43.393 38.8486 44.0195C38.6475 45.6544 38.445 47.2892 38.2422 48.9238C38.0347 50.5977 37.8283 52.2722 37.6221 53.9463C37.2186 57.2202 36.8141 60.494 36.4082 63.7676C36.2182 63.6726 36.0278 63.5784 35.832 63.4805C35.7027 62.9678 35.7022 62.9673 35.6201 62.2852C35.5878 62.0277 35.5557 61.7702 35.5225 61.5049C35.4895 61.2201 35.4568 60.935 35.4229 60.6416C35.3863 60.3433 35.3492 60.0446 35.3115 59.7373C35.1905 58.7458 35.0741 57.7537 34.957 56.7617C34.8741 56.0747 34.7904 55.3872 34.707 54.7002C34.5326 53.2575 34.3598 51.8142 34.1885 50.3711C33.9688 48.5209 33.7463 46.671 33.5225 44.8213C33.3094 43.0596 33.0981 41.2971 32.8867 39.5352C32.8462 39.1984 32.8055 38.8616 32.7637 38.5146C32.649 37.5605 32.536 36.6057 32.4229 35.6514C32.3888 35.3691 32.3544 35.0868 32.3193 34.7959C32.2733 34.4046 32.2735 34.4041 32.2266 34.0049C32.1997 33.7794 32.1722 33.5536 32.1445 33.3213C32.0838 32.6192 32.0783 31.928 32.0879 31.2236C31.8886 31.2021 31.6888 31.1814 31.4834 31.1592C29.2328 30.8567 27.3186 30.1901 25.248 29.3057C24.5355 29.0119 23.9034 28.804 23.1602 28.6318C20.9603 31.4457 18.7741 34.2701 16.6084 37.1104C16.4094 37.371 16.2099 37.6318 16.0049 37.9004C15.8194 38.1441 15.6335 38.3876 15.4424 38.6387C15.1958 38.9625 15.1959 38.9626 14.9443 39.293C14.5966 39.7608 14.2677 40.2425 13.9443 40.7275C13.7544 40.6325 13.5639 40.5383 13.3682 40.4404C13.4409 40.262 13.5139 40.0833 13.5889 39.8994C14.3442 38.0461 15.0954 36.1908 15.8447 34.335C16.125 33.6422 16.4062 32.9498 16.6885 32.2578C17.0935 31.2644 17.4957 30.2695 17.8965 29.2744C18.024 28.9639 18.1509 28.6529 18.2822 28.333C18.3975 28.0449 18.513 27.7568 18.6318 27.46C18.7348 27.2061 18.8383 26.952 18.9443 26.6904C19.2052 26.001 19.2047 26.0005 18.8398 25.1758C18.3805 24.7323 18.3805 24.732 17.8145 24.2939C16.0173 22.7688 14.501 21.0537 13.6562 18.8398C10.0996 20.8476 6.54272 22.8554 3 24.8877C3 24.024 3.00035 24.0235 3.31738 23.6025C3.46562 23.4562 3.61388 23.3099 3.7666 23.1592C3.93381 22.992 4.10116 22.8246 4.27344 22.6523C4.45606 22.4742 4.63899 22.2959 4.82715 22.1123C5.01242 21.9283 5.19779 21.7443 5.38867 21.5547C5.9824 20.9658 6.57901 20.3797 7.17578 19.7939C7.57831 19.3957 7.98068 18.9972 8.38281 18.5986C9.37015 17.6208 10.3602 16.6455 11.3516 15.6719C11.2946 15.4847 11.2383 15.2973 11.1797 15.1045C10.7686 13.7452 10.3654 12.3874 10.0195 11.0098C9.95051 10.7385 9.88166 10.467 9.81055 10.1875C9.26333 7.69194 9.33594 5.64318 9.33594 3H22.2959C22.581 4.33056 22.8664 5.66135 23.1602 7.03223ZM27.1904 32.0879C28.145 36.2648 27.2857 39.208 25.3545 42.8701C25.1505 43.2763 24.9475 43.6829 24.7451 44.0898C23.2743 47.0061 23.2744 47.0069 22.583 47.3525C22.6381 46.1499 22.7184 44.9508 22.8154 43.751C22.8539 43.25 22.8877 42.7486 22.918 42.2471C23.1868 38.0423 23.9209 35.1617 26.9023 32.0879H27.1904ZM45.0488 32.0879C45.5466 32.5555 46.0158 33.0357 46.4883 33.5283C46.6513 33.6768 46.8145 33.8255 46.9824 33.9785C49.0788 36.1806 49.0615 39.0196 49.3506 41.8984C49.41 42.4277 49.4703 42.9572 49.5312 43.4863C49.6779 44.7741 49.8138 46.063 49.9443 47.3525H49.3682C48.7019 46.1136 48.0463 44.8692 47.3994 43.6201C47.1788 43.1975 46.9557 42.7761 46.7295 42.3564C45.2723 39.6475 44.3781 37.5495 44.7607 34.3926C44.7847 34.1488 44.8083 33.9045 44.833 33.6533C44.8908 33.13 44.9672 32.6081 45.0488 32.0879ZM15.0967 23.7363C15.4661 24.8447 15.2522 25.1531 14.7734 26.2021C13.7112 28.2476 12.2508 29.3503 10.3867 30.6143C9.93515 30.9218 9.49188 31.2415 9.0498 31.5625C7.13142 32.9519 7.13176 32.9521 6.45703 32.9521C6.97331 31.4925 7.79858 30.4106 8.72461 29.1836C9.33775 28.37 9.33783 28.3695 9.80469 27.5586C11.1208 25.3806 12.7438 24.6067 15.0967 23.7363ZM58.4912 24.3662C58.7953 24.4832 59.0998 24.6002 59.4131 24.7207C61.2902 25.6746 62.3547 27.3804 63.5312 29.0645C63.6848 29.2794 63.8389 29.4944 63.9971 29.7158C64.7319 30.7603 65.3843 31.7248 65.7812 32.9521C64.4887 32.337 63.3656 31.5259 62.1992 30.7021C61.9831 30.552 61.7667 30.4017 61.5439 30.2471C59.7739 29.0001 58.3587 27.8793 57.4834 25.8428C57.3627 25.5684 57.2425 25.2934 57.1182 25.0107C56.8538 24.3122 56.8535 24.3123 56.8535 23.7363C57.4012 23.9416 57.9467 24.1527 58.4912 24.3662ZM29.1973 20.1045C28.7452 20.7093 28.2923 21.3135 27.8398 21.918C27.6847 22.1257 27.53 22.3339 27.3701 22.5479C27.1419 22.8526 27.1411 22.8521 26.9082 23.1631C26.7599 23.3615 26.6118 23.5602 26.459 23.7646C26.1032 24.2295 25.7292 24.6806 25.3516 25.1279C24.8024 25.7382 24.8019 25.7383 24.8877 26.6162C25.5527 26.8948 26.2188 27.1704 26.8857 27.4443C27.07 27.5219 27.2545 27.5988 27.4443 27.6787C28.8694 28.2601 30.2901 28.6264 31.7998 28.9199C31.4044 24.4311 31.405 24.4309 30.6484 19.9922L29.4961 19.7041C29.3974 19.8361 29.2989 19.9684 29.1973 20.1045ZM42.7441 19.7041C42.1467 19.6612 42.1463 19.6613 41.5918 19.9922C41.4344 20.5569 41.4341 20.5573 41.3564 21.2422C41.3028 21.6302 41.3028 21.6304 41.248 22.0264C41.213 22.2993 41.1777 22.5723 41.1416 22.8535C41.1054 23.1165 41.0695 23.3804 41.0322 23.6514C40.7953 25.404 40.6051 27.1592 40.4404 28.9199C42.8668 28.3907 45.0863 27.6323 47.3516 26.6162C47.1724 25.576 46.7388 24.9316 46.1113 24.0918C45.92 23.8357 45.7284 23.5793 45.5312 23.3154C45.3302 23.0504 45.129 22.7848 44.9219 22.5117C44.7221 22.2423 44.5223 21.9729 44.3164 21.6953C44.1247 21.4407 43.9328 21.1861 43.7354 20.9238C43.5593 20.6899 43.3826 20.4559 43.2012 20.2148C43.0503 20.0464 42.8996 19.8776 42.7441 19.7041ZM22.2959 13.9443C21.2827 13.9444 20.9425 14.1776 20.0879 14.7002C19.8308 14.8561 19.5735 15.0122 19.3086 15.1729C19.0412 15.3376 18.7736 15.5021 18.498 15.6719C18.0919 15.9191 18.092 15.9197 17.6777 16.1719C17.0082 16.5797 16.3393 16.9893 15.6719 17.4004C16.1619 19.6815 18.3003 21.6294 19.9922 23.1602H20.5684C21.0684 21.9936 21.557 20.8225 22.0439 19.6504C22.1861 19.319 22.3281 18.9869 22.4746 18.6455C22.6063 18.3255 22.7383 18.0055 22.874 17.6758C22.9977 17.3817 23.1216 17.0872 23.249 16.7842C23.4878 15.7948 23.3596 15.3985 22.8721 14.5195C22.6821 14.3296 22.4916 14.1401 22.2959 13.9443ZM51.3369 14.1943C50.3579 13.7307 50.0295 13.8684 49.2285 14.5762C48.7698 15.3194 48.7818 15.6232 48.9707 16.4893C49.3307 17.4724 49.7329 18.4241 50.1602 19.3799C50.3027 19.7155 50.4449 20.0517 50.5918 20.3975C50.9448 21.2257 51.3051 22.0499 51.6719 22.8721C52.5502 22.9624 52.5506 22.9627 53.127 22.3965C54.5769 20.9315 55.7915 19.4549 56.8564 17.6885C55.704 16.8026 54.4878 16.0693 53.2383 15.3301C52.9068 15.1299 52.9064 15.1298 52.5684 14.9258C52.3555 14.7998 52.1422 14.6738 51.9229 14.5439C51.7296 14.4288 51.536 14.313 51.3369 14.1943ZM48.2148 3C48.2148 6.22046 47.4919 8.65679 45.335 11.0645C45.1906 11.2385 45.0462 11.4125 44.8975 11.5918C43.0411 13.665 40.3492 14.9973 37.5752 15.165C33.4244 15.2649 30.5356 14.5439 27.4521 11.6504C24.9275 9.04569 24.349 6.59158 24.0225 3H48.2148ZM16.0693 5.27832C15.5788 5.28194 15.5787 5.28244 15.0781 5.28613C14.7498 5.28743 14.4213 5.2887 14.083 5.29004C13.2687 5.29345 12.454 5.2978 11.6396 5.30371C11.5837 6.968 11.7496 8.3799 12.1797 9.98438C12.2298 10.1839 12.2804 10.3833 12.332 10.5889C12.5867 11.5737 12.8616 12.4828 13.3682 13.3682C14.0575 12.8071 14.7212 12.2318 15.3838 11.6396C15.5381 11.5036 15.6926 11.3677 15.8516 11.2275C16.375 10.7604 16.8883 10.2832 17.4004 9.80371C17.5731 9.65158 17.7459 9.49951 17.9238 9.34277C18.8544 8.46697 18.8542 8.46658 19.1807 7.27344C19.0927 6.19686 19.0926 6.19651 18.5518 5.30371C18.039 5.27859 17.5251 5.2727 17.0117 5.27539C16.7008 5.27632 16.3896 5.27736 16.0693 5.27832ZM53.6885 5.30371C52.8704 7.65293 52.8702 7.65306 53.54 8.69238C53.7685 8.90797 53.997 9.12359 54.2324 9.3457C54.6016 9.7035 54.6018 9.70432 54.9785 10.0693C55.2416 10.3085 55.5053 10.5475 55.7764 10.7939C56.1643 11.1677 56.1646 11.1684 56.5605 11.5498C57.6914 12.8177 57.6916 12.818 59.1602 13.3682C59.3468 12.7265 59.5324 12.0844 59.7178 11.4424C59.8214 11.0849 59.9255 10.7267 60.0322 10.3584C60.5411 8.50059 60.5996 7.34979 60.5996 5.30371H53.6885Z" fill="url(#paint0_linear_0_147)"/>
</g>
<defs>
<filter id="filter0_d_0_147" x="0" y="0" width="72.5283" height="66.7676" filterUnits="userSpaceOnUse" color-interpolation-filters="sRGB">
<feFlood flood-opacity="0" result="BackgroundImageFix"/>
<feColorMatrix in="SourceAlpha" type="matrix" values="0 0 0 0 0 0 0 0 0 0 0 0 0 0 0 0 0 0 127 0" result="hardAlpha"/>
<feOffset/>
<feGaussianBlur stdDeviation="1.5"/>
<feComposite in2="hardAlpha" operator="out"/>
<feColorMatrix type="matrix" values="0 0 0 0 0.373347 0 0 0 0 0.303656 0 0 0 0 0 0 0 0 1 0"/>
<feBlend mode="normal" in2="BackgroundImageFix" result="effect1_dropShadow_0_147"/>
<feBlend mode="normal" in="SourceGraphic" in2="effect1_dropShadow_0_147" result="shape"/>
</filter>
<linearGradient id="paint0_linear_0_147" x1="36.2642" y1="3" x2="36.2642" y2="63.7676" gradientUnits="userSpaceOnUse">
<stop stop-color="#F9F8F3"/>
<stop offset="1" stop-color="#E7BA90"/>
</linearGradient>
</defs>
</svg>
