<svg width="24" height="24" viewBox="0 0 24 24" fill="none" xmlns="http://www.w3.org/2000/svg">
<path d="M12.0952 13.4397C12.4245 13.6043 12.4697 13.9977 12.5825 14.3303C12.624 14.4514 12.6242 14.452 12.6665 14.5754C12.7249 14.7468 12.7827 14.9184 12.8403 15.0901C12.9282 15.3505 13.0191 15.6099 13.1099 15.8694C13.1663 16.0363 13.2227 16.2033 13.2788 16.3704C13.306 16.447 13.3328 16.5239 13.3608 16.6028C13.6806 17.5812 13.3993 18.491 13.1636 19.4641C13.1365 19.5775 13.1094 19.6911 13.0815 19.8079C13.0245 20.0458 12.9673 20.284 12.9097 20.5217C12.8212 20.8873 12.7338 21.2534 12.647 21.6194C12.5913 21.851 12.5359 22.0832 12.48 22.3147C12.454 22.4245 12.4277 22.5346 12.4009 22.6477C12.364 22.7983 12.3643 22.7986 12.3267 22.9524C12.3052 23.0413 12.2833 23.1303 12.2612 23.2219C12.1914 23.4238 12.1914 23.4238 11.9995 23.5198C11.8411 21.4606 11.6822 19.4011 11.519 17.2795C11.1857 17.2798 10.9816 17.5869 10.7515 17.8079C10.2017 18.3356 10.2015 18.3362 9.98389 18.3362C10.2294 17.5244 10.5787 16.7655 10.9312 15.9963C10.9906 15.8659 11.0505 15.7352 11.1099 15.6047C11.2517 15.2929 11.3942 14.9808 11.5366 14.6692C11.7236 14.2598 11.9091 13.8495 12.0952 13.4397ZM12.7671 12.9602C13.1045 13.083 13.3731 13.225 13.6597 13.4407C13.7736 13.5255 13.7739 13.526 13.8901 13.6125C14.0519 13.7351 14.2139 13.8578 14.3755 13.9807C14.7941 14.2972 15.2021 14.5712 15.6655 14.8196C15.9495 15.0221 16.0201 15.1141 16.0952 15.4583C16.1033 15.7924 16.0881 16.1096 16.0562 16.4417C16.0269 16.7542 16.0057 17.0669 15.9849 17.3801C15.9414 18.0191 15.892 18.6579 15.8394 19.2961H15.6479C15.4164 18.8149 15.1853 18.3329 14.9556 17.8508C14.8774 17.6871 14.7989 17.5231 14.7202 17.3596C14.6069 17.1242 14.4945 16.8885 14.3823 16.6526C14.3295 16.5437 14.3288 16.543 14.2749 16.4319C14.0906 16.0417 13.9654 15.6987 13.9194 15.2639H14.5913C14.0275 14.5716 14.0274 14.5714 13.4565 13.885C13.4128 13.8329 13.3688 13.7805 13.3237 13.7268C13.1985 13.5779 13.0723 13.4292 12.9468 13.2805C12.7673 13.0564 12.7671 13.056 12.7671 12.9602ZM11.4233 12.7678C11.2763 13.1332 11.0535 13.3302 10.7573 13.5842C10.4612 13.839 10.2059 14.0773 9.98389 14.3997C10.1737 14.3364 10.3636 14.2734 10.5591 14.2083C10.4032 14.6624 10.156 15.0345 9.89307 15.4319C9.79833 15.5766 9.7036 15.7217 9.60889 15.8665C9.56019 15.9406 9.51159 16.0147 9.46143 16.0911C9.21575 16.466 8.97307 16.8434 8.72998 17.22C8.6429 17.3547 8.55541 17.4896 8.46826 17.6243C8.43182 17.6806 8.39545 17.7371 8.35791 17.7952C8.26096 17.9441 8.16252 18.0926 8.06396 18.2405H7.87158C7.88487 17.9086 7.89914 17.5762 7.91357 17.2444C7.91735 17.1498 7.9214 17.0547 7.92529 16.9573C7.93131 16.822 7.93086 16.8219 7.93701 16.6838C7.94053 16.6004 7.94413 16.5169 7.94775 16.4309C7.96746 16.2241 7.96806 16.2243 8.06396 16.0325C6.73351 16.4443 5.4025 16.8553 4.03174 17.2795V17.0881C4.22167 16.9585 4.40993 16.8422 4.60889 16.7278C4.66973 16.692 4.73077 16.6562 4.79346 16.6194C4.92571 16.5418 5.05831 16.464 5.19092 16.387C5.54352 16.1821 5.89506 15.9755 6.24658 15.7688C6.31836 15.7267 6.3904 15.6843 6.46436 15.6409C7.16364 15.2302 7.85691 14.81 8.54932 14.3879C8.66098 14.32 8.7726 14.2517 8.88428 14.1838C9.27078 13.9487 9.65747 13.7137 10.0435 13.4778C10.2512 13.3508 10.4594 13.2243 10.6675 13.0979C10.7746 13.0324 10.8823 12.9671 10.9927 12.8997C11.2316 12.7682 11.2316 12.7678 11.4233 12.7678ZM18.5278 12.2883C18.376 12.5918 18.1119 12.6171 17.8013 12.7317C17.6865 12.7744 17.5719 12.8175 17.4536 12.8616C17.3201 12.9102 17.3193 12.9106 17.1831 12.9602C17.8548 13.1807 18.5269 13.4012 19.1987 13.6213C19.5108 13.7236 19.8232 13.8256 20.1353 13.928C20.4949 14.046 20.8547 14.1637 21.2144 14.2815C21.3248 14.3178 21.4356 14.3545 21.5493 14.3918C22.1125 14.5762 22.6757 14.7531 23.2476 14.9084C23.423 14.9759 23.4231 14.9762 23.519 15.1682C22.1693 15.0337 20.8231 14.8755 19.478 14.7004C19.255 14.6717 19.0313 14.6438 18.8081 14.6165C18.4802 14.5763 18.1522 14.5344 17.8247 14.4915C17.7264 14.4799 17.6281 14.4682 17.5269 14.4563C16.5474 14.3229 15.7878 13.8818 14.9819 13.3323C14.92 13.2911 14.8573 13.2497 14.7935 13.2073C14.5087 13.0155 14.2524 12.8241 14.0151 12.5764C14.2155 12.376 14.6394 12.4419 14.9165 12.429C14.9977 12.4248 15.0789 12.4205 15.1626 12.4163C15.3354 12.4076 15.5084 12.3991 15.6812 12.3909C15.9441 12.3783 16.2073 12.3652 16.4702 12.3518C16.6382 12.3435 16.8062 12.3347 16.9741 12.3264C17.0522 12.3225 17.1309 12.3187 17.2114 12.3147C17.6507 12.2939 18.088 12.2846 18.5278 12.2883ZM10.3306 11.9446C10.5741 11.9019 10.7097 11.9337 10.9438 12.0002C10.838 12.0544 10.7316 12.1085 10.6226 12.1643C10.2227 12.3688 9.82309 12.5738 9.42334 12.7786C9.25167 12.8665 9.07943 12.9535 8.90771 13.0413C8.65812 13.1689 8.40818 13.2972 8.15869 13.425C8.07728 13.4667 7.9955 13.509 7.91162 13.552C7.33328 13.8491 6.75865 14.1526 6.18896 14.4661C5.78086 14.6877 5.78021 14.6877 5.56787 14.6877C5.696 14.3429 5.85161 14.0392 6.04736 13.7278C5.50709 13.5849 4.973 13.4792 4.42041 13.3977C4.25842 13.373 4.09607 13.3482 3.93408 13.3235C3.68187 13.2854 3.42954 13.2478 3.17725 13.2102C2.93153 13.1734 2.68552 13.1356 2.43994 13.0979C2.36456 13.0869 2.28909 13.076 2.21143 13.0647C1.85989 13.0104 1.55301 12.9565 1.24756 12.7678C2.39508 12.6133 3.54445 12.4993 4.69775 12.3977C4.98751 12.3721 5.27721 12.3459 5.56689 12.3196C5.75395 12.3029 5.94135 12.2854 6.12842 12.2688C6.21349 12.261 6.29858 12.2534 6.38623 12.2454C6.91538 12.1995 7.43613 12.1847 7.96729 12.1917C7.87225 12.3184 7.77712 12.4459 7.6792 12.5764C7.94317 12.5186 8.20731 12.4598 8.47119 12.4016C8.54966 12.3844 8.62862 12.3676 8.70947 12.3499C9.2541 12.2292 9.79338 12.0953 10.3306 11.9446ZM18.1519 8.91138C18.3356 8.83217 18.3356 8.83201 18.6235 8.92798C18.4335 9.24478 18.2432 9.56154 18.0474 9.88794C18.3033 9.90557 18.3038 9.90608 18.5649 9.92407C19.3812 9.98687 20.1927 10.0839 21.0054 10.1819C21.1569 10.2 21.3089 10.2185 21.4604 10.2366C21.8267 10.2802 22.1929 10.3243 22.5591 10.3684V10.5598C21.7023 10.6853 20.8456 10.811 19.9888 10.9358C19.5908 10.9938 19.1924 11.0513 18.7944 11.1096C18.4104 11.1659 18.0261 11.2218 17.6421 11.2776C17.4956 11.2989 17.3491 11.3205 17.2026 11.342C16.9976 11.3722 16.7925 11.4022 16.5874 11.4319C16.4706 11.4489 16.3533 11.4661 16.2329 11.4836C15.9355 11.5201 15.9352 11.5198 15.5513 11.5198C15.5513 11.328 15.5519 11.3281 15.6958 11.1721C15.7432 11.1287 15.7905 11.0851 15.8394 11.0403C15.7799 11.0611 15.72 11.0813 15.6587 11.1028C15.3892 11.1966 15.1191 11.2896 14.8491 11.3821C14.709 11.4312 14.7089 11.4316 14.5659 11.4817C14.4759 11.5123 14.3852 11.5429 14.2925 11.5745C14.2096 11.6031 14.1269 11.6319 14.0415 11.6614C13.8238 11.7122 13.8234 11.7124 13.5356 11.6165C13.606 11.5765 13.676 11.5356 13.7485 11.4944C14.0203 11.3398 14.2923 11.1854 14.564 11.0305C14.6861 10.9609 14.808 10.891 14.9302 10.8215C15.578 10.4529 16.2238 10.082 16.8618 9.69653C16.9581 9.63852 17.0546 9.58053 17.1538 9.52075C17.3348 9.41112 17.5158 9.30104 17.6958 9.1897C17.7764 9.14094 17.8569 9.0915 17.9399 9.04126C18.0097 8.99829 18.0799 8.95565 18.1519 8.91138ZM1.69385 8.26587C1.76122 8.27704 1.82854 8.28854 1.89795 8.30005C2.27873 8.36325 2.65986 8.42659 3.04053 8.49048C3.20082 8.51737 3.36168 8.54367 3.52197 8.57056C3.64357 8.59096 3.64376 8.59169 3.76807 8.61255C4.25542 8.69409 4.74301 8.77392 5.23096 8.85181C5.53595 8.90067 5.8412 8.95017 6.146 9.00024C6.29096 9.0238 6.43642 9.04698 6.58154 9.06958C7.96714 9.28582 7.96777 9.28568 8.54346 9.69556C8.69599 9.79583 8.84875 9.89635 9.00146 9.99634C9.16301 10.1059 9.32466 10.2163 9.48584 10.3264C9.56795 10.3816 9.65027 10.4365 9.73486 10.4934C9.81347 10.547 9.89216 10.6012 9.97314 10.6565C10.0443 10.7048 10.1157 10.7532 10.189 10.803C10.3674 10.944 10.3674 10.9441 10.5591 11.2317C8.32606 11.2792 8.32578 11.2799 6.04736 11.3284C6.34116 11.0346 6.49856 10.9609 6.88135 10.8303C6.97671 10.7973 7.07216 10.7638 7.17041 10.7297C7.24323 10.7054 7.31609 10.6806 7.39111 10.6555C7.27389 10.6131 7.15642 10.5713 7.03564 10.5276C6.58961 10.366 6.14369 10.2041 5.69775 10.0422C5.50675 9.97295 5.31556 9.90339 5.12451 9.83423C4.47166 9.59785 3.8191 9.36011 3.16748 9.12036C3.0706 9.0848 2.97335 9.0486 2.87354 9.01196C2.59063 8.90774 2.30827 8.80212 2.02588 8.69653C1.89595 8.64878 1.8955 8.64946 1.76318 8.60083C1.68407 8.571 1.60446 8.54074 1.52295 8.51001C1.45332 8.48406 1.38375 8.45764 1.31201 8.43091C1.15175 8.35165 1.15106 8.35216 1.05518 8.1604C1.2678 8.19563 1.48122 8.23061 1.69385 8.26587ZM16.3198 7.39185C16.7006 7.25688 16.701 7.25704 17.0894 7.11938C17.3349 7.03258 17.5811 6.94534 17.8267 6.85864C17.9976 6.79824 18.1685 6.73762 18.3394 6.677C18.5846 6.59 18.8302 6.50378 19.0757 6.41724C19.1907 6.3763 19.1908 6.37598 19.3081 6.33423C19.8496 6.14395 19.8501 6.1438 20.064 6.1438V6.33618C19.8527 6.48086 19.6411 6.61351 19.4214 6.74438C18.7895 7.12995 18.1684 7.52904 17.5532 7.94067C17.4689 7.997 17.3842 8.05354 17.2974 8.11157C17.0373 8.28557 16.7769 8.45974 16.5171 8.63403C15.9246 9.03106 15.3317 9.42762 14.7378 9.82251C14.5755 9.93049 14.4135 10.0393 14.2515 10.1477C14.0233 10.3001 13.794 10.4517 13.5649 10.6028C13.4967 10.6486 13.4282 10.6942 13.3579 10.7415C13.197 10.8469 13.0308 10.9448 12.8638 11.0403C12.8004 11.0086 12.7367 10.9762 12.6714 10.9436C13.1782 10.0883 13.6853 9.233 14.2075 8.35181C14.3995 8.54381 14.3996 8.54428 14.4956 8.83228C14.5406 8.73351 14.5859 8.63423 14.6323 8.53247C14.8002 8.16433 14.9682 7.79604 15.1362 7.42798C15.2087 7.26909 15.2816 7.11034 15.354 6.95142C15.4585 6.72212 15.5628 6.49216 15.6675 6.26294C15.6995 6.19251 15.7321 6.12163 15.7651 6.04907C15.9426 5.66078 16.1263 5.27644 16.3198 4.89575H16.4155C16.3838 5.71938 16.3525 6.54326 16.3198 7.39185ZM8.25537 3.64771C8.5746 4.01844 8.74864 4.4533 8.9458 4.89575C8.98352 4.97953 9.02217 5.06334 9.06104 5.14966C9.14049 5.32643 9.21934 5.50393 9.29834 5.68091C9.41923 5.95156 9.54075 6.22222 9.6626 6.49243C9.73973 6.66431 9.81701 6.83613 9.89404 7.00806C9.93044 7.08887 9.96689 7.16992 10.0044 7.25317C10.038 7.32868 10.0723 7.40389 10.1069 7.48169C10.1365 7.5479 10.1663 7.61465 10.1968 7.68286C10.2719 7.87203 10.3231 8.05773 10.3677 8.2561C10.2766 8.22442 10.1851 8.19304 10.0913 8.1604C9.81337 8.05466 9.81313 8.05397 9.59912 8.06372C9.63391 8.11154 9.66875 8.15996 9.70459 8.20923C9.86561 8.43078 10.0272 8.65252 10.188 8.87427C10.2426 8.94927 10.2968 9.02453 10.353 9.10181C10.7223 9.61172 11.078 10.1291 11.4233 10.6555C11.3917 10.7188 11.3603 10.7827 11.3276 10.8479C11.2852 10.8127 11.2424 10.7777 11.1987 10.7415C10.4513 10.1219 9.70339 9.50336 8.93994 8.90356C8.88473 8.86014 8.82885 8.81745 8.77197 8.77271C8.5404 8.59169 8.30868 8.41926 8.06396 8.2561C8.03437 8.01289 8.03351 8.01275 8.04248 7.7063C8.04509 7.5939 8.04858 7.48128 8.05127 7.36548C8.05546 7.24753 8.05965 7.12958 8.06396 7.00806C8.0668 6.89473 8.06886 6.78106 8.07178 6.66431C8.0809 6.31882 8.09348 5.97355 8.10596 5.62817C8.10973 5.51125 8.11281 5.39415 8.1167 5.27368C8.13614 4.72524 8.16043 4.1886 8.25537 3.64771ZM12.0952 1.05591C12.2399 1.31841 12.3153 1.53048 12.3442 1.82837C12.3519 1.90367 12.3598 1.9793 12.3677 2.05688C12.3751 2.13745 12.3825 2.21802 12.3901 2.30103C12.3984 2.38534 12.407 2.47001 12.4155 2.55688C12.4328 2.73541 12.4497 2.91442 12.4663 3.09302C12.4914 3.36297 12.5178 3.63278 12.5444 3.90259C12.626 4.74627 12.7049 5.58311 12.6714 6.43188C13.1011 6.16984 13.4305 5.8772 13.7739 5.50903C13.9192 5.3757 13.9199 5.37622 14.1118 5.37622C13.9174 5.98236 13.6977 6.57415 13.4595 7.16431C13.4258 7.24832 13.3916 7.33263 13.3569 7.41919C13.2506 7.68419 13.1443 7.94926 13.0376 8.21411C12.9649 8.39507 12.8925 8.5761 12.8198 8.75708C12.6428 9.19812 12.4651 9.63947 12.2876 10.0803C11.8416 9.85733 11.6838 8.89341 11.5269 8.43091C11.4668 8.25652 11.405 8.0825 11.3413 7.90942C10.8993 6.70679 10.7708 5.85785 11.1646 4.6311C11.2563 4.33668 11.3284 4.03796 11.4019 3.73853C11.4931 3.36735 11.5916 2.99804 11.688 2.62817C11.7279 2.47426 11.7673 2.32018 11.8071 2.16626C11.9029 1.79618 11.9988 1.42584 12.0952 1.05591Z" fill="url(#paint0_linear_2065_2242)"/>
<defs>
<linearGradient id="paint0_linear_2065_2242" x1="12.2872" y1="1.05591" x2="12.2872" y2="23.5199" gradientUnits="userSpaceOnUse">
<stop stop-color="#F9F8F3"/>
<stop offset="1" stop-color="#E7BA90"/>
</linearGradient>
</defs>
</svg>
