<svg width="24" height="25" viewBox="0 0 24 25" fill="none" xmlns="http://www.w3.org/2000/svg">
<g filter="url(#filter0_d_2016_623)">
<path d="M12.1914 10.9436C12.0156 11.1086 11.8402 11.2567 11.6514 11.4055C10.5033 12.3458 9.49823 13.3824 8.63867 14.592C8.59968 14.6454 8.56068 14.6991 8.52051 14.7542C6.94473 16.9218 6.05949 19.3718 5.9873 22.05C5.98359 22.1643 5.97941 22.279 5.97559 22.3967C5.96665 22.675 5.95873 22.9533 5.95117 23.2317C5.44013 22.8007 4.94863 22.353 4.46289 21.8938C4.35927 21.7964 4.35874 21.796 4.25293 21.6965C3.9252 21.3875 3.6006 21.0758 3.2832 20.7561C3.06195 20.5333 2.83769 20.3201 2.59668 20.1184C2.49966 20.0372 2.40269 19.956 2.30273 19.8723C2.62814 18.8566 3.81867 18.2261 4.67578 17.676C4.91496 17.521 5.14699 17.3548 5.375 17.1838C4.80492 17.3105 4.23481 17.4371 3.64746 17.5676C4.38626 16.0713 5.43686 15.3126 6.91113 14.592C6.42823 14.6425 5.94889 14.6986 5.4707 14.7844C6.60502 12.9103 8.58866 11.5353 10.6943 10.9788C11.1906 10.858 11.6901 10.7531 12.1914 10.6555V10.9436ZM20.7354 1.34399C21.979 3.65822 21.8859 6.5729 21.1543 9.03638C20.7128 10.447 19.9864 11.757 19.0068 12.8635C18.9291 12.9549 18.8515 13.0467 18.7715 13.1409C17.7972 14.2659 16.6392 15.0943 15.3594 15.8401C15.2519 15.9073 15.2512 15.9073 15.1416 15.9758C14.9631 16.0859 14.9629 16.0862 14.6875 16.2239C14.5926 16.1922 14.4972 16.1608 14.3994 16.1282C14.4567 15.9958 14.4563 15.9954 14.5146 15.8606C15.0922 14.4942 15.5834 12.9848 15.0713 11.5198C14.7371 10.8331 14.3335 10.4443 13.625 10.1516C12.0641 9.6272 10.4161 10.2687 9.00195 10.9534C8.67176 11.1218 8.35663 11.3122 8.0459 11.5139C7.8712 11.6163 7.87069 11.6155 7.67871 11.6155C7.81722 11.2297 8.00689 10.9136 8.23145 10.5715C9.15001 9.12097 9.7807 7.34223 9.43652 5.61938C9.23319 4.88955 8.93552 4.21679 8.38184 3.68481C8.25546 3.55206 8.25488 3.55162 8.25488 3.35962C8.63367 3.48133 8.99809 3.61863 9.3623 3.77856C11.2793 4.61108 13.1995 5.42156 15.2988 5.62231C15.4137 5.63617 15.5291 5.65003 15.6475 5.66431L15.7432 5.85571C14.5709 6.31484 13.3373 6.40152 12.0947 6.52759C14.2264 6.96354 16.3856 6.62567 18.2393 5.47192C19.6457 4.48695 20.2183 2.96743 20.543 1.34399H20.7354Z" fill="url(#paint0_linear_2016_623)"/>
</g>
<defs>
<filter id="filter0_d_2016_623" x="1.30273" y="0.343994" width="21.3887" height="23.8877" filterUnits="userSpaceOnUse" color-interpolation-filters="sRGB">
<feFlood flood-opacity="0" result="BackgroundImageFix"/>
<feColorMatrix in="SourceAlpha" type="matrix" values="0 0 0 0 0 0 0 0 0 0 0 0 0 0 0 0 0 0 127 0" result="hardAlpha"/>
<feOffset/>
<feGaussianBlur stdDeviation="0.5"/>
<feComposite in2="hardAlpha" operator="out"/>
<feColorMatrix type="matrix" values="0 0 0 0 0.373347 0 0 0 0 0.303656 0 0 0 0 0 0 0 0 1 0"/>
<feBlend mode="normal" in2="BackgroundImageFix" result="effect1_dropShadow_2016_623"/>
<feBlend mode="normal" in="SourceGraphic" in2="effect1_dropShadow_2016_623" result="shape"/>
</filter>
<linearGradient id="paint0_linear_2016_623" x1="11.9967" y1="1.34399" x2="11.9967" y2="23.2317" gradientUnits="userSpaceOnUse">
<stop stop-color="#F9F8F3"/>
<stop offset="1" stop-color="#E7BA90"/>
</linearGradient>
</defs>
</svg>
