<svg width="24" height="25" viewBox="0 0 24 25" fill="none" xmlns="http://www.w3.org/2000/svg">
<g filter="url(#filter0_d_2016_601)">
<path d="M20.2556 1C21.3065 2.24479 21.5254 4.43778 21.408 5.99219C21.2861 7.33259 20.9569 8.62281 20.3523 9.83203C20.1822 9.89452 20.1817 9.89493 19.9588 9.9502C19.8766 9.97154 19.7944 9.99265 19.7097 10.0146C19.6209 10.0375 19.5317 10.0604 19.4402 10.084C17.1568 10.7079 15.3261 11.8456 14.0154 13.8643C14.1684 14.0172 14.3261 13.9804 14.5379 13.9844C15.7525 13.9654 16.6505 13.3658 17.5681 12.6162C17.5376 13.3178 17.2213 13.8778 16.7605 14.4023C15.91 15.1721 14.8741 15.2262 13.7908 15.249C12.8758 15.2823 12.1563 15.4907 11.5203 16.168C11.3037 16.4227 11.0929 16.6819 10.8845 16.9434C10.657 17.2223 10.4196 17.4875 10.1755 17.752C9.7058 18.2636 9.26686 18.7947 8.8318 19.3359C8.73303 19.4559 8.63386 19.5755 8.53492 19.6953C8.43181 19.8214 8.32939 19.9481 8.22633 20.0742C8.17796 20.1324 8.12871 20.1901 8.07887 20.25C7.68951 20.73 7.30282 21.2206 7.28981 21.8574C7.30577 21.952 7.32121 22.0471 7.33766 22.1445C7.42 22.645 7.42029 22.6455 7.2693 22.917C6.98854 23.1944 6.66061 23.2189 6.27613 23.2168C5.89103 23.1478 5.58412 22.9377 5.24977 22.7422C4.90083 22.55 4.61882 22.4576 4.2234 22.4082C4.02449 22.479 4.02485 22.4795 3.93629 22.6963C3.85764 22.9513 3.79969 23.2022 3.74391 23.4639C3.4194 23.3303 3.27981 23.1951 3.10231 22.8945C3.06236 22.8284 3.02236 22.7615 2.98121 22.6934C2.73626 22.2335 2.71118 21.7653 2.78395 21.2559C2.94471 20.956 3.14726 20.7383 3.45582 20.584C3.66353 20.5558 3.87163 20.5301 4.07985 20.5059C5.24427 20.3397 5.94918 19.9288 6.81617 19.1445C6.88971 19.0789 6.88962 19.0786 6.96461 19.0117C7.97644 18.1035 8.93213 17.1338 9.8943 16.1738C9.95985 16.1085 10.025 16.0429 10.0925 15.9756C11.0157 15.0613 11.0161 15.0613 11.8845 14.0957C11.9997 13.96 12.0003 13.9604 12.1921 13.7686C11.9326 13.6697 11.9323 13.669 11.616 13.6719C11.3945 13.8582 11.2325 14.0219 11.0515 14.2422C10.9509 14.3582 10.8497 14.474 10.7488 14.5898C10.7003 14.6465 10.6522 14.7034 10.6023 14.7617C10.4236 14.9661 10.2326 15.1565 10.0379 15.3457C9.82756 15.5521 9.64307 15.753 9.45582 15.9824C9.20706 16.2747 8.9415 16.5106 8.65016 16.7588C8.44582 16.9385 8.25491 17.1262 8.06422 17.3203C7.77048 17.618 7.46617 17.8946 7.1482 18.166C6.95097 18.3414 6.76002 18.52 6.57008 18.7031C6.50796 18.7626 6.4456 18.8225 6.3816 18.8838C6.25787 19.0025 6.13474 19.1219 6.01246 19.2422C5.43679 19.7923 4.90684 20.1527 4.09059 20.1377C3.99035 20.1329 3.98972 20.1329 3.88746 20.1279C3.81786 20.1262 3.74824 20.1248 3.67652 20.123C3.50697 20.1186 3.33719 20.1119 3.16774 20.1045C3.14899 19.5504 3.14948 19.5501 3.31813 19.3545C3.55209 19.2405 3.55198 19.2399 3.87184 19.208C4.26686 19.1361 4.41781 19.0347 4.71559 18.7725C4.80592 18.6945 4.89693 18.6165 4.99 18.5361C5.03716 18.4945 5.08399 18.4521 5.13258 18.4092C5.3343 18.2319 5.53956 18.0589 5.74488 17.8857C5.85108 17.7962 5.95736 17.7061 6.06324 17.6162C6.38892 17.3396 6.71787 17.0672 7.04957 16.7979C8.8782 15.3041 10.4566 13.9086 11.4802 11.7334C11.6156 11.4645 11.6164 11.4645 11.8084 11.2725C11.9507 11.2861 12.0928 11.3047 12.2341 11.3262C12.6066 11.3358 12.74 11.2938 13.0388 11.0615C13.3132 10.7918 13.5667 10.5017 13.824 10.2158C13.9416 10.1093 14.0619 10.0053 14.1843 9.9043C15.2201 9.01313 16.1497 8.0248 16.9627 6.92773C17.0886 6.75895 17.2179 6.59284 17.3474 6.42676C18.5112 4.91443 19.3742 3.25457 20.0642 1.48047C20.1281 1.32045 20.1915 1.15995 20.2556 1ZM12.5759 15.8799C12.9861 15.6749 13.3837 15.6752 13.824 15.7842C14.2872 16.1165 14.6581 16.5231 15.0418 16.9424C15.1456 17.0524 15.2499 17.162 15.3543 17.2715C15.5065 17.4312 15.6593 17.5911 15.8103 17.752C16.134 18.0955 16.4686 18.4153 16.8298 18.7197C17.0653 18.919 17.2848 19.1345 17.5076 19.3477C18.3244 20.091 19.18 20.4555 20.2742 20.5186C20.6347 20.5496 20.7239 20.5742 21.0242 20.8057C21.3611 21.2584 21.4471 21.5214 21.3699 22.0771C21.2248 22.6599 20.9456 23.1264 20.448 23.4639C20.4328 23.4039 20.4177 23.344 20.4021 23.2822C20.3797 23.2038 20.3568 23.1248 20.3338 23.0439C20.3126 22.966 20.2911 22.8879 20.2693 22.8076C20.173 22.5823 20.173 22.5823 19.9382 22.4668C19.6273 22.3964 19.5004 22.4362 19.2117 22.5645C19.1282 22.6008 19.0448 22.6374 18.9588 22.6748C18.7535 22.7761 18.5645 22.885 18.3718 23.0078C17.9568 23.223 17.7422 23.2212 17.28 23.1758C17.0103 23.0789 16.9275 23.0479 16.7996 22.792C16.8077 22.566 16.8183 22.3401 16.8298 22.1143C16.8424 21.3994 16.693 21.0193 16.2234 20.4883C16.1432 20.3918 16.0638 20.2947 15.9812 20.1953C15.8018 19.9797 15.6195 19.7661 15.4363 19.5537C15.1933 19.2715 14.9574 18.9841 14.7234 18.6943C14.448 18.3557 14.1657 18.0269 13.8718 17.7041C13.5592 17.3595 13.2531 17.0106 12.9539 16.6543C12.8815 16.5683 12.8087 16.4822 12.7341 16.3936C12.5756 16.1682 12.5759 16.1679 12.5759 15.8799ZM14.5916 15.6885C15.5147 15.5256 15.5152 15.5248 15.9002 15.7988C16.0803 15.9493 16.2542 16.1053 16.4275 16.2637C16.5564 16.3785 16.6861 16.4938 16.8152 16.6084C16.8781 16.6646 16.9408 16.7214 17.0056 16.7793C17.2398 16.986 17.4806 17.1835 17.7234 17.3799C18.176 17.7463 18.6215 18.1208 19.0642 18.499C19.2048 18.6187 19.3464 18.738 19.488 18.8564C19.5541 18.9119 19.6202 18.9673 19.6882 19.0244C19.8994 19.1621 20.0688 19.2035 20.3162 19.2461C20.7155 19.3157 20.7153 19.3161 20.9275 19.5283C20.9395 19.8281 20.9395 19.8286 20.9275 20.1045C20.7015 20.1123 20.4758 20.1176 20.2498 20.1221C20.1239 20.1254 19.9976 20.1284 19.8679 20.1318C19.1507 20.0787 18.7148 19.7716 18.2214 19.2881C18.1124 19.1843 18.0035 19.0803 17.8943 18.9766C17.84 18.9244 17.7852 18.8721 17.7293 18.8184C17.485 18.5853 17.2356 18.3573 16.9861 18.1299C16.8916 18.0433 16.7964 17.9568 16.7019 17.8701C16.5053 17.6901 16.3083 17.5104 16.1111 17.3311C14.8175 16.153 14.8174 16.1526 14.5916 15.8799V15.6885ZM6.66871 12.7256C6.87587 12.8837 7.08522 13.0386 7.29567 13.1924C7.35442 13.2358 7.41384 13.2785 7.47438 13.3232C8.03757 13.7087 8.65778 13.8773 9.31129 14.0557C9.17869 14.3637 9.0313 14.5408 8.77223 14.752C8.71159 14.8019 8.65013 14.8518 8.58766 14.9033C8.54153 14.9403 8.49553 14.9775 8.44801 15.0156C7.52886 14.6074 7.01583 14.0192 6.59352 13.1143C6.52753 12.9043 6.52809 12.9041 6.52809 12.6162C6.57453 12.6522 6.62086 12.6886 6.66871 12.7256ZM3.74391 1C3.99159 1.12386 3.99806 1.21178 4.09254 1.46777C4.12207 1.54564 4.15098 1.62388 4.18141 1.7041C4.2131 1.78852 4.24543 1.87298 4.27809 1.95996C5.16011 4.22781 6.47905 6.26835 8.13063 8.05469C8.25544 8.19094 8.37964 8.32835 8.49977 8.46875C8.90587 8.94329 9.33756 9.37391 9.79762 9.7959C9.99182 9.97522 10.1859 10.1551 10.3787 10.3359C10.4969 10.4458 10.6172 10.5534 10.739 10.6592C10.9014 10.8059 10.9012 10.8065 11.1355 11.0801C11.1562 11.514 10.867 11.9511 10.6736 12.334C10.6406 12.4019 10.608 12.4701 10.574 12.54C10.3872 12.9132 10.2082 13.203 9.88746 13.4805C9.82581 13.4016 9.76446 13.3224 9.70094 13.2412C8.58466 11.8477 7.219 10.8153 5.47633 10.3408C5.37753 10.3137 5.27831 10.2867 5.17652 10.2588C4.98177 10.2075 4.78528 10.1597 4.58863 10.1162C4.20373 10.0171 3.92871 9.9456 3.6775 9.62598C3.54892 9.37862 3.45042 9.1357 3.36012 8.87207C3.32101 8.76239 3.32092 8.76229 3.28102 8.65039C3.21289 8.44558 3.15258 8.24035 3.09547 8.03223C3.07556 7.96358 3.05544 7.89494 3.03492 7.82422C2.39846 5.58635 2.70884 3.07014 3.74391 1Z" fill="url(#paint0_linear_2016_601)"/>
</g>
<defs>
<filter id="filter0_d_2016_601" x="1.70508" y="0" width="20.7305" height="24.4639" filterUnits="userSpaceOnUse" color-interpolation-filters="sRGB">
<feFlood flood-opacity="0" result="BackgroundImageFix"/>
<feColorMatrix in="SourceAlpha" type="matrix" values="0 0 0 0 0 0 0 0 0 0 0 0 0 0 0 0 0 0 127 0" result="hardAlpha"/>
<feOffset/>
<feGaussianBlur stdDeviation="0.5"/>
<feComposite in2="hardAlpha" operator="out"/>
<feColorMatrix type="matrix" values="0 0 0 0 0.373347 0 0 0 0 0.303656 0 0 0 0 0 0 0 0 1 0"/>
<feBlend mode="normal" in2="BackgroundImageFix" result="effect1_dropShadow_2016_601"/>
<feBlend mode="normal" in="SourceGraphic" in2="effect1_dropShadow_2016_601" result="shape"/>
</filter>
<linearGradient id="paint0_linear_2016_601" x1="12.0708" y1="1" x2="12.0708" y2="23.4639" gradientUnits="userSpaceOnUse">
<stop stop-color="#F9F8F3"/>
<stop offset="1" stop-color="#E7BA90"/>
</linearGradient>
</defs>
</svg>
