<svg width="25" height="24" viewBox="0 0 25 24" fill="none" xmlns="http://www.w3.org/2000/svg">
<g filter="url(#filter0_d_2016_595)">
<path d="M1.10938 1.63208C1.36061 1.87613 1.58991 2.11273 1.80988 2.38658C2.06048 2.68878 2.34228 2.93912 2.65138 3.18008C2.70907 3.22509 2.76675 3.27009 2.82618 3.31646C3.79418 4.05153 4.86962 4.62962 5.92138 5.23396C9.54465 7.32032 9.54465 7.32032 10.7364 9.07133C10.9081 9.32191 11.0932 9.55693 11.2854 9.79208C11.3805 9.54926 11.4076 9.3794 11.3117 9.13339C11.1999 8.92391 11.0804 8.72194 10.9554 8.52008C10.8895 8.41127 10.8895 8.41127 10.8224 8.30026C10.3742 7.57575 9.87081 6.93336 9.17338 6.43208C9.78563 6.38835 10.2029 6.4571 10.7094 6.81608C11.2212 7.26736 11.5029 7.78267 11.7613 8.40796C11.8609 8.65799 11.8609 8.65799 12.0534 8.92808C12.3494 8.9521 12.3494 8.9521 12.6294 8.92808C12.6621 8.84108 12.6947 8.75409 12.7284 8.66446C13.0665 7.81465 13.4423 6.95265 14.3094 6.52208C14.7012 6.41714 15.0096 6.41083 15.4134 6.43208C15.35 6.47762 15.2867 6.52316 15.2214 6.57008C14.5615 7.13372 14.0778 7.77804 13.6254 8.51408C13.581 8.58365 13.5366 8.65322 13.4909 8.7249C13.2324 9.15563 13.2324 9.15563 13.2751 9.64996C13.3155 9.72854 13.3558 9.80712 13.3974 9.88808C13.4442 9.80665 13.4909 9.72523 13.5391 9.64133C14.3728 8.24197 15.473 7.19455 16.8534 6.33608C16.9069 6.30267 16.9603 6.26926 17.0154 6.23483C17.6849 5.81874 18.3688 5.42848 19.0547 5.04013C20.636 4.14375 22.0924 3.2157 23.2951 1.83271C23.3553 1.7665 23.4154 1.70029 23.4774 1.63208C23.5091 1.63208 23.5407 1.63208 23.5734 1.63208C23.6709 4.40362 22.9833 6.61785 21.1014 8.70608C20.2304 9.63978 19.2203 10.3352 18.1014 10.9441C18.9333 10.9052 19.7005 10.7895 20.5014 10.5601C20.389 11.1923 19.8524 11.6489 19.3554 12.0181C18.7188 12.4134 17.8225 12.8182 17.0626 12.7403C16.8512 12.6694 16.6673 12.5821 16.4694 12.4801C16.2781 12.4139 16.0862 12.3495 15.8934 12.2881C15.9607 12.3427 16.028 12.3972 16.0974 12.4535C16.2877 12.6084 16.4776 12.7639 16.667 12.92C16.8291 13.0532 16.9919 13.1855 17.1568 13.3152C18.6983 14.5719 19.7237 16.5828 19.9843 18.5405C20.1048 19.7475 20.0392 21.0506 19.5414 22.1761C19.478 22.1761 19.4147 22.1761 19.3494 22.1761C19.3109 22.0913 19.2724 22.0065 19.2328 21.9192C18.8533 21.1082 18.416 20.4455 17.8134 19.7761C17.7083 19.6554 17.7083 19.6554 17.6011 19.5323C17.161 19.0381 16.702 18.5672 16.2294 18.104C16.1321 18.0082 16.0348 17.9124 15.9375 17.8166C15.7451 17.6273 15.5514 17.4395 15.3569 17.2524C14.4409 16.3607 13.7325 15.3815 13.2054 14.2081C13.186 14.3185 13.1667 14.4289 13.1467 14.5426C13.0745 14.9538 13.0018 15.365 12.9288 15.776C12.8974 15.9537 12.8661 16.1313 12.835 16.309C12.7901 16.565 12.7447 16.8209 12.6991 17.0768C12.6854 17.1558 12.6717 17.2347 12.6576 17.316C12.5825 17.7345 12.4885 18.1274 12.3414 18.5281C12.1079 18.2946 12.0959 18.1638 12.0324 17.843C12.0023 17.6923 12.0023 17.6923 11.9715 17.5386C11.951 17.4315 11.9305 17.3244 11.9094 17.2141C11.8881 17.1059 11.8669 16.9976 11.845 16.8861C11.7072 16.1717 11.5926 15.4591 11.5119 14.7361C11.5027 14.5023 11.5027 14.5023 11.3814 14.4001C11.3521 14.4607 11.3227 14.5214 11.2925 14.5838C10.5552 16.0251 9.45398 17.1315 8.30338 18.2461C7.24291 19.2734 6.18786 20.2958 5.51338 21.6301C5.45968 21.7346 5.40597 21.8392 5.35063 21.947C5.31326 22.0226 5.27589 22.0982 5.23738 22.1761C5.04538 22.0801 5.04538 22.0801 4.96701 21.86C4.94337 21.7683 4.91974 21.6766 4.89538 21.5821C4.8715 21.4916 4.84762 21.4012 4.82301 21.308C4.34662 19.2472 4.74197 17.0772 5.84938 15.2821C6.67401 14.0597 7.60144 13.1483 8.78938 12.2881C8.65326 12.3317 8.51729 12.3758 8.38138 12.4201C8.30565 12.4446 8.22991 12.4691 8.15188 12.4943C7.92582 12.5685 7.92582 12.5685 7.73526 12.6852C7.26531 12.8861 6.66563 12.6413 6.20863 12.476C5.38967 12.1235 4.70464 11.6735 4.18138 10.9441C4.12101 10.7348 4.12101 10.7348 4.08538 10.5601C4.15295 10.5798 4.22052 10.5994 4.29013 10.6197C5.05428 10.8282 5.79111 10.9102 6.58138 10.9441C6.49661 10.8987 6.41185 10.8532 6.32451 10.8065C5.5414 10.3786 4.84555 9.91413 4.18138 9.31208C4.11124 9.24901 4.11124 9.24901 4.03968 9.18467C2.38901 7.68194 1.12725 5.5378 1.01338 3.26408C1.00616 2.99407 1.00289 2.72418 1.00138 2.45408C1.00093 2.38463 1.00047 2.31517 1 2.24361C1.00162 1.73985 1.00162 1.73985 1.10938 1.63208ZM4.08538 7.10408C4.22226 7.53028 4.45453 7.81654 4.75738 8.13608C4.80462 8.18635 4.85185 8.23663 4.90052 8.28842C6.03755 9.48515 7.37167 10.5744 9.07738 10.7521C9.3656 10.7587 9.65316 10.7578 9.94138 10.7521C9.73843 9.97831 9.36905 9.461 8.88538 8.83208C8.69219 8.57095 8.50086 8.30847 8.30938 8.04608C8.21742 7.92067 8.12543 7.7953 8.03338 7.66996C7.96606 7.57826 7.89874 7.48656 7.82938 7.39208C7.70317 7.79873 7.79928 8.01247 7.96138 8.40608C8.00569 8.5151 8.04999 8.62413 8.09563 8.73646C8.13449 8.83137 8.17335 8.92629 8.21338 9.02408C8.2609 9.16664 8.2609 9.16664 8.30938 9.31208C7.90914 9.10655 7.50915 8.90053 7.10938 8.69408C7.05046 8.66365 6.99153 8.63322 6.93082 8.60187C6.14715 8.19665 5.36891 7.78407 4.60457 7.34317C4.36 7.1762 4.36 7.1762 4.08538 7.10408ZM19.7454 7.47608C19.0476 7.87696 18.3359 8.24253 17.6134 8.59672C17.1581 8.82054 16.715 9.05538 16.2774 9.31208C16.3109 9.23783 16.3445 9.16358 16.379 9.08708C16.6297 8.51319 16.8172 8.0187 16.8534 7.39208C16.401 7.82336 16.062 8.32417 15.7014 8.83208C15.639 8.91858 15.5766 9.00508 15.5124 9.09421C14.9384 9.85196 14.9384 9.85196 14.7414 10.7521C16.2109 10.8369 17.6203 10.1847 18.7243 9.24496C19.7853 8.27851 19.7853 8.27851 20.5974 7.10408C20.2747 7.10408 20.0183 7.31674 19.7454 7.47608ZM14.2614 13.1521C14.4302 14.2747 15.2864 15.1071 16.0429 15.8873C16.241 16.0944 16.4299 16.3091 16.6194 16.5241C16.9293 16.8711 17.2532 17.2006 17.5854 17.5261C18.0248 17.9599 18.4116 18.412 18.7734 18.9121C18.9374 18.5208 18.7865 18.2043 18.6414 17.8321C18.6154 17.7648 18.5893 17.6975 18.5625 17.6282C17.7928 15.709 16.6128 14.082 14.6728 13.2335C14.4624 13.141 14.4624 13.141 14.2614 13.1521ZM8.04351 14.4616C6.98424 15.5821 6.07466 17.0086 5.71738 18.5281C5.74462 18.7486 5.74462 18.7486 5.81338 18.9121C5.87984 18.8318 5.94629 18.7515 6.01476 18.6687C6.55618 18.022 7.11477 17.4045 7.71538 16.8121C8.71823 15.8219 9.77415 14.7582 10.3254 13.4401C10.3254 13.345 10.3254 13.25 10.3254 13.1521C9.53873 13.1521 8.57537 13.9445 8.04351 14.4616Z" fill="url(#paint0_linear_2016_595)"/>
</g>
<defs>
<filter id="filter0_d_2016_595" x="0" y="0.63208" width="24.582" height="22.5439" filterUnits="userSpaceOnUse" color-interpolation-filters="sRGB">
<feFlood flood-opacity="0" result="BackgroundImageFix"/>
<feColorMatrix in="SourceAlpha" type="matrix" values="0 0 0 0 0 0 0 0 0 0 0 0 0 0 0 0 0 0 127 0" result="hardAlpha"/>
<feOffset/>
<feGaussianBlur stdDeviation="0.5"/>
<feComposite in2="hardAlpha" operator="out"/>
<feColorMatrix type="matrix" values="0 0 0 0 0.373347 0 0 0 0 0.303656 0 0 0 0 0 0 0 0 1 0"/>
<feBlend mode="normal" in2="BackgroundImageFix" result="effect1_dropShadow_2016_595"/>
<feBlend mode="normal" in="SourceGraphic" in2="effect1_dropShadow_2016_595" result="shape"/>
</filter>
<linearGradient id="paint0_linear_2016_595" x1="12.2912" y1="1.63208" x2="12.2912" y2="22.1761" gradientUnits="userSpaceOnUse">
<stop stop-color="#F9F8F3"/>
<stop offset="1" stop-color="#E7BA90"/>
</linearGradient>
</defs>
</svg>
