<svg width="24" height="24" viewBox="0 0 24 24" fill="none" xmlns="http://www.w3.org/2000/svg">
<g filter="url(#filter0_d_2016_597)">
<path d="M19.1038 4.79963C20.1834 5.75441 20.4739 7.69609 20.5648 9.05549C20.627 11.4234 19.7972 13.6105 18.1781 15.3338C17.221 16.3094 16.1507 16.9713 14.8792 17.4715H14.5911C14.6228 17.6932 14.6552 17.915 14.6878 18.1434C17.3244 17.0573 19.3183 15.447 20.4476 12.7674C21.1895 10.9062 21.1361 9.16628 20.9271 7.20002C21.6613 7.93421 21.6959 9.72837 21.7191 10.7039C21.6546 13.4231 20.6088 15.7475 18.7191 17.6639C18.6433 17.7409 18.5676 17.818 18.4896 17.8973C17.4287 18.9123 15.959 19.7708 14.5023 20.0438C13.6612 20.2095 13.2624 20.4304 12.7835 21.119C12.6795 21.2773 12.5795 21.4383 12.4798 21.5994C12.4254 21.6827 12.3709 21.7666 12.3148 21.8524C12.2057 22.0217 12.1014 22.1944 11.9993 22.368C11.6192 22.2413 11.5577 22.0733 11.345 21.7381C11.2491 21.5877 11.1537 21.4365 11.055 21.2879C10.9752 21.1669 10.8983 21.044 10.8236 20.9197C10.4441 20.3384 10.0832 20.2041 9.41927 20.0633C6.94963 19.4465 4.8105 17.9084 3.47298 15.7293C2.15076 13.4576 1.75646 10.822 2.39485 8.26057C2.57561 7.59419 2.57608 7.59385 2.68782 7.29572L2.87923 7.20002C2.86538 7.30435 2.8515 7.40894 2.83723 7.51642C2.4991 10.1505 2.88214 12.6099 4.44466 14.8065C4.65064 15.064 4.86354 15.3093 5.08723 15.5516C5.14698 15.619 5.20732 15.6862 5.26887 15.7557C6.25758 16.8149 7.6459 17.6175 9.02376 18.0477C9.11876 17.7627 9.11822 17.7623 9.21516 17.4715C9.0926 17.4567 9.09237 17.4564 8.96712 17.4412C7.33703 17.1129 5.79414 15.7276 4.83528 14.4354C3.4737 12.3784 2.92437 10.0074 3.40852 7.56916C3.63104 6.57677 4.02768 5.6356 4.60774 4.79963C4.63941 4.86297 4.67081 4.92675 4.70344 4.99201C4.63663 5.18849 4.56135 5.38237 4.48177 5.57404C3.68787 7.57324 3.81599 9.62897 4.60774 11.616C5.58275 13.7646 7.35535 15.0987 9.50325 15.9354C9.64581 15.9829 9.64591 15.9836 9.79134 16.032C9.80638 15.9469 9.80626 15.9461 9.82161 15.8592C9.94123 15.2198 10.1191 14.612 10.3138 13.992C10.9109 12.0429 11.3462 10.0478 11.8079 8.0633H11.9993C12.0326 8.21154 12.0328 8.21192 12.0667 8.3631C12.4427 10.0364 12.8197 11.7091 13.2777 13.3621C13.3076 13.4704 13.3376 13.5787 13.3685 13.6903C13.5414 14.3029 13.7329 14.906 13.9437 15.5067C14.0152 15.7435 14.0159 15.744 14.0159 16.032C15.4751 15.4878 16.6532 14.8333 17.7591 13.7274C17.8244 13.6621 17.8901 13.5973 17.9574 13.5301C19.2747 12.1187 19.8519 10.1531 19.8714 8.25568C19.8208 7.31312 19.6303 6.4732 19.307 5.58771C19.2146 5.3236 19.15 5.0749 19.1038 4.79963ZM11.7386 13.1981C11.6513 13.5005 11.5644 13.803 11.4769 14.1053C11.4377 14.2409 11.3979 14.3769 11.3587 14.5125C11.1562 15.214 10.9517 15.9146 10.7327 16.6112C10.7013 16.7116 10.6704 16.8124 10.638 16.9158C10.5791 17.1026 10.519 17.2892 10.4583 17.4754C10.4321 17.5585 10.4052 17.6417 10.3782 17.7274C10.3551 17.7987 10.3327 17.8706 10.3089 17.9442C10.2657 18.1762 10.2847 18.308 10.3675 18.5281C10.5328 18.7268 10.6983 18.9121 10.8773 19.0975C10.971 19.1962 11.065 19.2953 11.1585 19.3944C11.2033 19.4418 11.2481 19.4891 11.2943 19.5379C11.4759 19.7368 11.643 19.9472 11.8079 20.16C12.166 20.0167 12.3336 19.8166 12.5638 19.5115C12.7946 19.2083 13.0129 18.9539 13.3079 18.7137C13.5581 18.4686 13.5578 18.4679 13.5257 18.2488C13.5079 18.1809 13.4904 18.1128 13.472 18.0428C13.4523 17.9661 13.4317 17.8894 13.4115 17.8104C13.3889 17.7303 13.3663 17.6497 13.3431 17.5672C13.3217 17.4906 13.3007 17.4138 13.2786 17.3348C13.2076 17.0884 13.1337 16.8428 13.0589 16.5975C13.032 16.5083 13.0046 16.4188 12.9769 16.327C12.9202 16.1398 12.8629 15.9525 12.806 15.7654C12.719 15.4795 12.6326 15.1932 12.5462 14.907C12.4909 14.7245 12.4356 14.5418 12.3802 14.3592C12.3545 14.2742 12.3295 14.189 12.3031 14.1014C12.1848 13.7136 12.0635 13.333 11.9036 12.9598H11.8079C11.7853 13.0384 11.7619 13.1171 11.7386 13.1981ZM10.5794 1.38361C11.702 1.21649 12.9441 1.25236 14.015 1.63166C14.0968 1.65834 14.1787 1.68523 14.263 1.71271C15.8487 2.27954 17.0445 3.53001 17.7825 5.00959C18.4562 6.54072 18.5732 8.31573 17.972 9.8924C17.5361 10.9178 16.9436 12.0301 15.9349 12.576C16.0499 12.3443 16.1668 12.1135 16.2855 11.8836C16.3445 11.7683 16.4043 11.6532 16.4632 11.5379C16.4927 11.4813 16.5217 11.4244 16.5521 11.366C17.179 10.1323 17.2206 8.78337 16.7982 7.47834C16.5439 6.81551 16.2138 6.28803 15.7425 5.75959C15.6914 5.69956 15.6399 5.6398 15.5872 5.57795C15.1381 5.0858 14.6156 4.79015 14.015 4.51154C13.9303 4.47157 13.8453 4.43163 13.7581 4.39045C12.6 3.92435 11.1389 3.96101 9.97298 4.38361C9.49438 4.60421 9.06522 4.87582 8.63899 5.18439C8.53606 5.25763 8.43254 5.33061 8.32649 5.40607C7.32037 6.38944 6.75073 7.74321 6.6888 9.14435C6.72562 10.3036 7.09879 11.2107 7.67903 12.1922C7.7443 12.3194 7.80848 12.4472 7.87044 12.576C6.77136 11.9841 6.11695 10.7681 5.73469 9.62385C5.21962 7.87164 5.39778 6.09832 6.26887 4.48713C7.27875 2.85002 8.7354 1.87066 10.5794 1.38361Z" fill="url(#paint0_linear_2016_597)"/>
</g>
<defs>
<filter id="filter0_d_2016_597" x="1.0957" y="0.288574" width="21.623" height="23.0793" filterUnits="userSpaceOnUse" color-interpolation-filters="sRGB">
<feFlood flood-opacity="0" result="BackgroundImageFix"/>
<feColorMatrix in="SourceAlpha" type="matrix" values="0 0 0 0 0 0 0 0 0 0 0 0 0 0 0 0 0 0 127 0" result="hardAlpha"/>
<feOffset/>
<feGaussianBlur stdDeviation="0.5"/>
<feComposite in2="hardAlpha" operator="out"/>
<feColorMatrix type="matrix" values="0 0 0 0 0.373347 0 0 0 0 0.303656 0 0 0 0 0 0 0 0 1 0"/>
<feBlend mode="normal" in2="BackgroundImageFix" result="effect1_dropShadow_2016_597"/>
<feBlend mode="normal" in="SourceGraphic" in2="effect1_dropShadow_2016_597" result="shape"/>
</filter>
<linearGradient id="paint0_linear_2016_597" x1="11.9074" y1="1.28857" x2="11.9074" y2="22.368" gradientUnits="userSpaceOnUse">
<stop stop-color="#F9F8F3"/>
<stop offset="1" stop-color="#E7BA90"/>
</linearGradient>
</defs>
</svg>
