<svg width="24" height="24" viewBox="0 0 24 24" fill="none" xmlns="http://www.w3.org/2000/svg">
<path d="M14.6619 2.42256C15.5865 3.14422 16.3221 4.11395 16.8003 5.18392C16.7703 5.41192 16.7703 5.41192 16.7043 5.56792C16.4218 5.30205 16.1811 5.03694 15.9543 4.72192C15.164 3.65742 14.1582 2.92887 12.8643 2.59192C12.7871 2.57014 12.7099 2.54836 12.6303 2.52592C12.2293 2.47702 11.8277 2.48887 11.4243 2.49592C11.4579 2.54802 11.4914 2.60012 11.526 2.6538C11.5696 2.72248 11.6133 2.79116 11.6583 2.86192C11.7018 2.92986 11.7452 2.9978 11.79 3.0678C12.1268 3.64541 12.0563 4.34705 12.0003 4.99192C11.7991 5.70546 11.365 6.21869 10.7523 6.62392C10.0428 7.02111 9.29285 7.16178 8.49895 6.9423C8.31901 6.87597 8.14303 6.79903 7.96833 6.71992C8.01585 6.62488 8.01585 6.62488 8.06433 6.52792C8.1236 6.53126 8.18288 6.53461 8.24395 6.53805C9.01213 6.5626 9.64409 6.4591 10.2603 5.97592C10.6647 5.59597 10.8263 5.20093 10.8843 4.64992C10.8312 4.16257 10.6844 3.86796 10.3383 3.52192C9.99254 3.3048 9.73238 3.21888 9.32395 3.29955C8.65753 3.50952 8.15546 3.9138 7.79545 4.51042C7.31036 5.45978 7.12504 6.33167 7.36195 7.3998C7.72608 8.4801 8.50322 9.3978 9.52233 9.92392C10.8494 10.5193 12.2535 10.5027 13.6323 10.0799C13.7611 10.0175 13.8893 9.95378 14.0163 9.88792C13.8902 9.89015 13.7641 9.89238 13.6342 9.89467C13.4676 9.89647 13.301 9.89822 13.1343 9.89992C13.0514 9.90153 12.9684 9.90314 12.8829 9.9048C12.4494 9.90812 12.1059 9.90287 11.7123 9.69592C12.565 8.76071 13.7213 8.22101 14.9763 8.06392C15.7172 8.03196 16.4491 8.06698 17.1843 8.15992C17.2043 8.09842 17.2242 8.03692 17.2447 7.97355C17.5237 7.19022 17.8984 6.68781 18.6423 6.29992C19.364 5.96187 20.0502 5.9558 20.8023 6.20992C21.5614 6.51378 21.9968 6.95234 22.3683 7.67992C22.5954 8.25312 22.5801 8.80105 22.5603 9.40792C22.4653 9.40792 22.3702 9.40792 22.2723 9.40792C22.256 9.33145 22.2397 9.25497 22.2228 9.17617C22.0607 8.46714 21.9173 7.94527 21.3423 7.46392C20.7891 7.17165 20.3133 7.02789 19.6983 7.20592C19.321 7.35804 19.1055 7.50169 18.9123 7.87192C18.806 8.28101 18.7656 8.60909 18.9243 9.00592C19.0994 9.22409 19.0994 9.22409 19.332 9.39405C20.3188 10.1991 21.0395 11.508 21.2163 12.7679C21.3684 14.7126 21.0159 16.4007 19.7223 17.9279C18.7032 18.9856 17.2333 19.825 15.7382 19.8791C15.5202 19.8813 15.3024 19.8803 15.0843 19.8779C15.0091 19.8775 14.9338 19.8771 14.8563 19.8766C14.6723 19.8755 14.4883 19.8738 14.3043 19.8719C14.3043 19.7769 14.3043 19.6818 14.3043 19.5839C14.4007 19.5687 14.4971 19.5535 14.5965 19.5378C16.3587 19.2442 17.7991 18.6464 18.9123 17.1839C19.0107 17.0254 19.1074 16.8657 19.2003 16.7039C19.1352 16.7026 19.0701 16.7012 19.0031 16.6998C18.0774 16.6524 17.4059 16.3958 16.7583 15.7199C16.188 15.0194 16.0722 14.3563 16.0942 13.4624C16.1444 13.0056 16.2581 12.5788 16.5123 12.1919C16.7178 12.07 16.7178 12.07 16.8963 11.9999C16.8814 12.065 16.8664 12.1301 16.851 12.1972C16.6699 13.063 16.6279 13.8307 17.073 14.6219C17.3943 15.0893 17.7909 15.2565 18.3363 15.3599C18.858 15.3416 19.1835 15.2155 19.5843 14.8799C19.8898 14.2741 19.7849 13.6759 19.5866 13.0462C19.1367 11.8996 18.5302 11.1859 17.4003 10.6739C16.4869 10.3402 15.5859 10.3834 14.6883 10.7519C13.3884 11.36 12.7687 12.5199 12.2782 13.8164C12.08 14.4602 12.0648 15.0742 12.0963 15.7439C12.1127 15.6766 12.129 15.6093 12.1458 15.5399C12.3543 14.7237 12.6454 14.0198 13.1523 13.3439C13.2157 13.3439 13.279 13.3439 13.3443 13.3439C13.7284 14.7843 13.5646 16.2506 12.8587 17.572C12.507 18.1078 12.068 18.5549 11.6163 19.0079C11.5473 19.0772 11.5473 19.0772 11.4769 19.1478C11.3636 19.2614 11.25 19.3747 11.1363 19.4879C11.164 19.5369 11.1918 19.5859 11.2203 19.6364C11.5731 20.3274 11.6482 20.9884 11.4603 21.7458C11.2153 22.388 10.7692 22.8433 10.1535 23.1453C9.34474 23.4456 8.65802 23.3795 7.87233 23.0399C7.62633 22.8899 7.62633 22.8899 7.48833 22.7519C7.48833 22.6886 7.48833 22.6252 7.48833 22.5599C7.57557 22.5824 7.57557 22.5824 7.66458 22.6053C8.39772 22.7756 9.05597 22.8417 9.73833 22.4819C10.0607 22.2067 10.2343 22.0021 10.3683 21.5999C10.4039 21.1195 10.3778 20.8336 10.0803 20.4479C9.74688 20.2256 9.61359 20.2319 9.22008 20.2297C9.10536 20.2277 8.99065 20.2257 8.87245 20.2237C8.63346 20.2212 8.39446 20.2194 8.15545 20.2184C6.55537 20.1877 5.32271 19.6554 4.15945 18.5688C3.19833 17.5657 2.58445 16.2712 2.49633 14.8799C2.49125 14.8105 2.48618 14.7411 2.48095 14.6695C2.4377 13.5279 2.7224 12.3331 3.26433 11.3279C3.35937 11.2804 3.35937 11.2804 3.45633 11.2319C3.51969 11.2636 3.58305 11.2953 3.64833 11.3279C3.62061 11.429 3.59289 11.5301 3.56433 11.6343C3.09598 13.4195 3.15549 14.9108 4.0687 16.5487C4.21333 16.8036 4.21333 16.8036 4.41633 16.9919C4.44207 16.9177 4.46781 16.8434 4.49433 16.7669C4.83101 15.8721 5.23686 15.2385 6.12633 14.8319C6.94887 14.5502 7.69715 14.6263 8.4952 14.9508C9.12649 15.2679 9.48913 15.6893 9.79233 16.3199C9.79233 16.3833 9.79233 16.4466 9.79233 16.5119C9.69729 16.5119 9.60225 16.5119 9.50433 16.5119C9.45483 16.4426 9.40533 16.3733 9.35433 16.3019C8.97242 15.8613 8.48722 15.609 7.91133 15.5084C7.34555 15.484 6.89421 15.6052 6.43233 15.9359C6.10003 16.2853 5.96789 16.539 5.92233 17.0219C5.95904 17.4552 6.04803 17.6276 6.33633 17.9519C6.86459 18.3806 7.45005 18.3941 8.10895 18.3723C8.9714 18.2799 9.7171 17.9612 10.2723 17.2799C10.9028 16.242 11.102 15.2808 10.8363 14.0924C10.3854 12.6511 9.46664 11.4253 8.16033 10.6559C7.94951 10.5863 7.94951 10.5863 7.77633 10.5599C7.87335 10.6332 7.97037 10.7064 8.07033 10.7819C8.52678 11.1713 8.84621 11.6612 9.12033 12.1919C9.12033 12.287 9.12033 12.382 9.12033 12.4799C7.74098 12.1169 6.59571 11.0678 5.85633 9.88792C5.67287 9.51118 5.51572 9.13098 5.37633 8.73592C5.29193 8.76698 5.20753 8.79805 5.12058 8.83005C4.4676 9.02961 3.77409 9.01135 3.14658 8.73217C2.49562 8.37945 2.14136 7.90517 1.92033 7.19992C1.79834 6.34106 1.88326 5.60639 2.40033 4.89592C2.5847 4.69713 2.74811 4.56807 2.97633 4.41592C3.03969 4.41592 3.10305 4.41592 3.16833 4.41592C3.10919 4.80034 2.9039 5.0593 2.68833 5.37592C2.53303 5.8418 2.49688 6.35736 2.6647 6.82605C2.84251 7.15308 3.02462 7.42061 3.36033 7.58392C3.76303 7.68081 4.10114 7.71741 4.50033 7.59592C4.8061 7.29015 4.88073 6.93403 4.99233 6.52792C5.57179 4.53222 6.34172 2.94576 8.21958 1.8723C10.2953 0.834455 12.7908 1.08173 14.6619 2.42256Z" fill="url(#paint0_linear_2065_2241)"/>
<defs>
<linearGradient id="paint0_linear_2065_2241" x1="12.2209" y1="1.23047" x2="12.2209" y2="23.3368" gradientUnits="userSpaceOnUse">
<stop stop-color="#F9F8F3"/>
<stop offset="1" stop-color="#E7BA90"/>
</linearGradient>
</defs>
</svg>
