<svg width="25" height="24" viewBox="0 0 25 24" fill="none" xmlns="http://www.w3.org/2000/svg">
<g filter="url(#filter0_d_2016_615)">
<path d="M7.71973 3.34375C8.21117 4.64862 8.99465 5.61942 10.2686 6.22363C10.5352 6.33299 10.8064 6.42161 11.0801 6.51172C11.1706 7.12913 11.2613 7.7468 11.3516 8.36426C11.3822 8.57333 11.4127 8.78313 11.4434 8.99219C11.6505 10.4044 11.85 11.8178 12.04 13.2324C12.0552 13.1093 12.0549 13.1088 12.0703 12.9834C12.1664 12.2088 12.2669 11.4346 12.3711 10.6611C12.4245 10.2634 12.4759 9.86514 12.5244 9.4668C12.5713 9.0823 12.6223 8.69809 12.6758 8.31445C12.6955 8.16825 12.7136 8.02155 12.7305 7.875C12.8645 6.72328 12.8653 6.72317 13.2012 6.43652C13.4225 6.33757 13.6286 6.27762 13.8643 6.22363C15.0541 5.56747 15.8978 4.74593 16.3672 3.44238C16.5038 2.96011 16.5771 2.49971 16.6484 2H20.9678C20.9678 3.88231 20.9679 3.88245 20.7939 4.5498C20.7701 4.65267 20.7704 4.65298 20.7461 4.75781C20.6324 5.2303 20.4734 5.67575 20.2959 6.12793C21.2138 7.16139 22.1937 8.1314 23.1758 9.10352C23.1441 9.16684 23.1127 9.23066 23.0801 9.2959C20.6817 7.94462 20.6814 7.9447 19.7197 7.37598C19.4045 7.67151 19.1385 7.98207 18.874 8.32422C18.524 8.76959 18.1414 9.13094 17.7041 9.48828C18.0026 10.2971 18.3076 11.1026 18.6299 11.9023C18.6592 11.9751 18.6885 12.048 18.7188 12.123C18.8392 12.4216 18.96 12.7202 19.0811 13.0186C19.1709 13.2404 19.2612 13.4626 19.3506 13.6846C19.3781 13.7521 19.4052 13.82 19.4336 13.8896C19.6237 14.3624 19.624 14.3624 19.624 14.5762H19.4316C19.2596 14.3658 19.0996 14.1535 18.9404 13.9336C18.8375 13.7938 18.734 13.6543 18.6309 13.5146C18.575 13.4388 18.5194 13.3623 18.4619 13.2842C18.1318 12.8393 17.7944 12.4001 17.458 11.96C17.3279 11.7895 17.1975 11.6187 17.0674 11.4482C17.012 11.3757 16.9565 11.3032 16.8994 11.2285C16.8482 11.1612 16.7969 11.0938 16.7441 11.0244C16.69 10.9563 16.6359 10.8876 16.5801 10.8174C16.4564 10.64 16.4561 10.64 16.4561 10.4482C16.3517 10.4934 16.2472 10.5384 16.1396 10.585C14.2078 11.4081 14.2074 11.4082 13.3838 11.4082C13.3799 11.4865 13.3761 11.5648 13.3721 11.6455C13.3065 12.7854 13.1675 13.9142 13.0264 15.0469C13.0007 15.2555 12.9749 15.4642 12.9492 15.6729C12.8822 16.2177 12.8147 16.7628 12.7471 17.3076C12.6779 17.8656 12.6097 18.4244 12.541 18.9824C12.4065 20.0736 12.271 21.1647 12.1357 22.2559L11.9443 22.1602C11.9012 21.9893 11.9004 21.9891 11.873 21.7617C11.8623 21.676 11.8519 21.5903 11.8408 21.502C11.8298 21.407 11.8189 21.3117 11.8076 21.2139C11.7954 21.1144 11.7831 21.0146 11.7705 20.9121C11.7302 20.5818 11.6913 20.2514 11.6523 19.9209C11.6247 19.6919 11.5971 19.4624 11.5693 19.2334C11.5112 18.7525 11.4536 18.2711 11.3965 17.79C11.3233 17.1734 11.2484 16.5569 11.1738 15.9404C11.1028 15.3532 11.0324 14.766 10.9619 14.1787C10.9484 14.0664 10.9348 13.9536 10.9209 13.8379C10.8827 13.5199 10.8453 13.2018 10.8076 12.8838C10.7963 12.7897 10.7851 12.6956 10.7734 12.5986C10.7581 12.4682 10.7578 12.468 10.7422 12.335C10.7332 12.2599 10.7241 12.1848 10.7148 12.1074C10.6946 11.8734 10.6931 11.643 10.6963 11.4082C10.6298 11.401 10.5626 11.3941 10.4941 11.3867C9.74406 11.2859 9.10613 11.0633 8.41602 10.7686C8.17848 10.6706 7.96749 10.6013 7.71973 10.5439C6.98646 11.4819 6.25802 12.4234 5.53613 13.3701C5.46981 13.457 5.4033 13.5443 5.33496 13.6338C5.27317 13.715 5.21113 13.7962 5.14746 13.8799C5.06541 13.9876 5.06524 13.9876 4.98145 14.0977C4.86552 14.2536 4.75623 14.4145 4.64844 14.5762C4.58515 14.5445 4.52125 14.5131 4.45605 14.4805C4.4803 14.421 4.50432 14.361 4.5293 14.2998C4.78103 13.6821 5.03153 13.0638 5.28125 12.4453C5.37464 12.2145 5.46846 11.9835 5.5625 11.7529C5.6975 11.4218 5.83221 11.0895 5.96582 10.7578C6.00825 10.6545 6.05003 10.5508 6.09375 10.4443C6.1322 10.3483 6.17133 10.2523 6.21094 10.1533C6.24525 10.0687 6.27911 9.98365 6.31445 9.89648C6.40135 9.66683 6.40188 9.66645 6.28027 9.3916C6.12715 9.24378 6.12711 9.24363 5.93848 9.09766C5.33948 8.58932 4.83336 8.01815 4.55176 7.28027C3.36629 7.94945 2.18081 8.61852 1 9.2959C1 9.008 0.99979 9.0075 1.10547 8.86719C1.15488 8.81841 1.20495 8.76998 1.25586 8.71973C1.31155 8.66406 1.36743 8.60813 1.4248 8.55078C1.48562 8.49145 1.54671 8.43223 1.60938 8.37109C1.67113 8.30975 1.73227 8.24778 1.7959 8.18457C1.99381 7.98828 2.19268 7.79292 2.3916 7.59766C2.52578 7.46492 2.6599 7.33208 2.79395 7.19922C3.12308 6.87327 3.45369 6.54821 3.78418 6.22363C3.76526 6.16141 3.74606 6.09926 3.72656 6.03516C3.58955 5.58205 3.45513 5.12915 3.33984 4.66992C3.31684 4.5795 3.29421 4.48867 3.27051 4.39551C3.08816 3.56376 3.1123 2.88098 3.1123 2H7.43164C7.52666 2.44342 7.62183 2.88689 7.71973 3.34375ZM9.06348 11.6963C9.38159 13.0885 9.09487 14.0694 8.45117 15.29C8.38322 15.4253 8.31546 15.5607 8.24805 15.6963C7.75776 16.6684 7.7578 16.6689 7.52734 16.7842C7.54571 16.3834 7.57314 15.9838 7.60547 15.584C7.61831 15.417 7.62956 15.2492 7.63965 15.082C7.72928 13.6806 7.97402 12.7208 8.96777 11.6963H9.06348ZM15.0166 11.6963C15.1823 11.852 15.3388 12.0118 15.4961 12.1758C15.5504 12.2253 15.6052 12.2752 15.6611 12.3262C16.3597 13.0601 16.3539 14.0064 16.4502 14.9658C16.47 15.1422 16.4904 15.3188 16.5107 15.4951C16.5596 15.9244 16.6049 16.3543 16.6484 16.7842H16.4561C16.234 16.3712 16.0154 15.9564 15.7998 15.54C15.7263 15.3992 15.6515 15.259 15.5762 15.1191C15.0904 14.2161 14.7923 13.5163 14.9199 12.4639C14.9279 12.3826 14.9361 12.3015 14.9443 12.2178C14.9636 12.0434 14.9894 11.8696 15.0166 11.6963ZM5.03223 8.91211C5.15539 9.28161 5.08441 9.3846 4.9248 9.73438C4.57072 10.4162 4.08326 10.7837 3.46191 11.2051C3.31157 11.3075 3.16379 11.4136 3.0166 11.5205C2.37714 11.9836 2.37725 11.9844 2.15234 11.9844C2.32444 11.4978 2.5995 11.1366 2.9082 10.7275C3.11247 10.4565 3.11298 10.4567 3.26855 10.1865C3.70725 9.46048 4.24792 9.20225 5.03223 8.91211ZM19.4971 9.12207C19.5984 9.16105 19.7003 9.20007 19.8047 9.24023C20.4302 9.55824 20.7846 10.1272 21.1768 10.6885C21.2279 10.7601 21.2793 10.8315 21.332 10.9053C21.577 11.2535 21.7944 11.5752 21.9268 11.9844C21.4961 11.7794 21.122 11.5088 20.7334 11.2344C20.6613 11.1843 20.5889 11.1336 20.5146 11.082C19.9247 10.6664 19.4529 10.2931 19.1611 9.61426C19.1209 9.52281 19.0805 9.43114 19.0391 9.33691C18.951 9.10418 18.9512 9.10407 18.9512 8.91211C19.1337 8.98053 19.3156 9.05091 19.4971 9.12207ZM9.73242 7.70117C9.58181 7.90266 9.43101 8.10427 9.28027 8.30566C9.22855 8.37489 9.17634 8.4443 9.12305 8.51562C9.04703 8.61713 9.04709 8.6174 8.96973 8.7207C8.92029 8.78683 8.87027 8.85374 8.81934 8.92188C8.70081 9.07669 8.57597 9.22698 8.4502 9.37598C8.26727 9.57923 8.2673 9.57951 8.2959 9.87207C8.51757 9.96494 8.7396 10.0571 8.96191 10.1484C9.02333 10.1743 9.08516 10.1999 9.14844 10.2266C9.62325 10.4202 10.0966 10.5418 10.5996 10.6396C10.4678 9.1437 10.468 9.14357 10.2158 7.66406C10.0892 7.6324 9.9625 7.60098 9.83203 7.56836C9.79924 7.61225 9.7662 7.65596 9.73242 7.70117ZM14.248 7.56836C14.0489 7.55405 14.0489 7.55385 13.8643 7.66406C13.8118 7.85236 13.811 7.85273 13.7852 8.08105C13.7673 8.20994 13.7672 8.2102 13.749 8.3418C13.7373 8.43281 13.7259 8.52439 13.7139 8.61816C13.7018 8.70578 13.6902 8.79352 13.6777 8.88379C13.5988 9.46788 13.5354 10.0528 13.4805 10.6396C14.2892 10.4632 15.0292 10.2108 15.7842 9.87207C15.7244 9.52529 15.5793 9.31024 15.3701 9.03027C15.3064 8.94498 15.2424 8.85937 15.1768 8.77148C15.1098 8.68323 15.0426 8.59483 14.9736 8.50391C14.9071 8.41414 14.8411 8.32393 14.7725 8.23145C14.7085 8.14655 14.644 8.06207 14.5781 7.97461C14.5194 7.89665 14.4609 7.8186 14.4004 7.73828C14.3501 7.6822 14.2998 7.62613 14.248 7.56836ZM7.43164 5.64844C7.0942 5.64849 6.981 5.7263 6.69629 5.90039C6.61065 5.95233 6.52475 6.00411 6.43652 6.05762C6.34742 6.11253 6.25782 6.16706 6.16602 6.22363C6.03062 6.30604 6.03068 6.30657 5.89258 6.39062C5.66941 6.52656 5.44612 6.66276 5.22363 6.7998C5.38691 7.56017 6.1001 8.20947 6.66406 8.71973H6.85645C7.02309 8.33096 7.18539 7.94042 7.34766 7.5498C7.39505 7.43937 7.44238 7.32862 7.49121 7.21484C7.53511 7.10819 7.57977 7.00148 7.625 6.8916C7.66618 6.79368 7.70757 6.69562 7.75 6.59473C7.82957 6.26498 7.78652 6.1328 7.62402 5.83984C7.5607 5.77652 7.49688 5.71368 7.43164 5.64844ZM17.1123 5.73145C16.786 5.57691 16.6762 5.62246 16.4092 5.8584C16.2563 6.10602 16.2604 6.2077 16.3232 6.49609C16.4432 6.82376 16.5773 7.14139 16.7197 7.45996C16.7672 7.57181 16.8153 7.68359 16.8643 7.79883C16.9819 8.07489 17.1014 8.34998 17.2236 8.62402C17.5163 8.65413 17.517 8.6544 17.709 8.46582C18.1922 7.97755 18.5972 7.4852 18.9521 6.89648C18.568 6.60123 18.1626 6.35671 17.7461 6.11035C17.6356 6.04362 17.6352 6.04366 17.5225 5.97559C17.4515 5.93357 17.3807 5.89094 17.3076 5.84766C17.2432 5.80929 17.1786 5.77097 17.1123 5.73145ZM16.0713 2C16.0713 3.07349 15.8303 3.88592 15.1113 4.68848C15.0633 4.74638 15.0153 4.8046 14.9658 4.86426C14.3471 5.55519 13.4499 5.99874 12.5254 6.05469C11.1417 6.08798 10.1783 5.84833 9.15039 4.88379C8.30885 4.01555 8.11665 3.19719 8.00781 2H16.0713ZM5.35645 2.75977C5.19306 2.76097 5.19289 2.76049 5.02637 2.76172C4.91692 2.76215 4.8071 2.76323 4.69434 2.76367C4.42289 2.76481 4.15132 2.76561 3.87988 2.76758C3.86122 3.32234 3.91621 3.7933 4.05957 4.32812C4.07624 4.39454 4.09318 4.46088 4.11035 4.5293C4.19525 4.85757 4.2872 5.16094 4.45605 5.45605C4.68582 5.26903 4.90706 5.07728 5.12793 4.87988C5.17936 4.83455 5.23119 4.78889 5.28418 4.74219C5.45853 4.58657 5.62921 4.4273 5.7998 4.26758C5.85738 4.21686 5.91529 4.16651 5.97461 4.11426C6.28472 3.82239 6.28481 3.82225 6.39355 3.4248C6.36422 3.06589 6.36389 3.06519 6.18359 2.76758C6.01288 2.75922 5.84182 2.7579 5.6709 2.75879C5.56726 2.7591 5.46323 2.75945 5.35645 2.75977ZM17.8965 2.76758C17.6238 3.55065 17.6234 3.55102 17.8467 3.89746C17.9228 3.96927 17.9987 4.04125 18.0771 4.11523C18.2002 4.2345 18.2006 4.23477 18.3262 4.35645C18.4138 4.43609 18.5015 4.5156 18.5918 4.59766C18.7212 4.72229 18.7215 4.72247 18.8535 4.84961C19.2305 5.27231 19.2304 5.27271 19.7197 5.45605C19.7819 5.24224 19.8445 5.02839 19.9063 4.81445C19.9408 4.69535 19.9752 4.57584 20.0107 4.45312C20.1804 3.8338 20.2002 3.44964 20.2002 2.76758H17.8965Z" fill="url(#paint0_linear_2016_615)"/>
</g>
<defs>
<filter id="filter0_d_2016_615" x="0" y="1" width="24.1758" height="22.2559" filterUnits="userSpaceOnUse" color-interpolation-filters="sRGB">
<feFlood flood-opacity="0" result="BackgroundImageFix"/>
<feColorMatrix in="SourceAlpha" type="matrix" values="0 0 0 0 0 0 0 0 0 0 0 0 0 0 0 0 0 0 127 0" result="hardAlpha"/>
<feOffset/>
<feGaussianBlur stdDeviation="0.5"/>
<feComposite in2="hardAlpha" operator="out"/>
<feColorMatrix type="matrix" values="0 0 0 0 0.373347 0 0 0 0 0.303656 0 0 0 0 0 0 0 0 1 0"/>
<feBlend mode="normal" in2="BackgroundImageFix" result="effect1_dropShadow_2016_615"/>
<feBlend mode="normal" in="SourceGraphic" in2="effect1_dropShadow_2016_615" result="shape"/>
</filter>
<linearGradient id="paint0_linear_2016_615" x1="12.088" y1="2" x2="12.088" y2="22.256" gradientUnits="userSpaceOnUse">
<stop stop-color="#F9F8F3"/>
<stop offset="1" stop-color="#E7BA90"/>
</linearGradient>
</defs>
</svg>
