<svg width="24" height="24" viewBox="0 0 24 24" fill="none" xmlns="http://www.w3.org/2000/svg">
<g filter="url(#filter0_d_2016_627)">
<path d="M1.53516 1.82422C2.00129 1.91679 2.46719 2.00996 2.93203 2.10884C4.75997 2.48781 6.62649 2.68057 8.49129 2.75635C8.89936 2.77305 9.29234 2.81673 9.69516 2.88022C9.64566 3.68858 9.38654 4.55346 9.02316 5.28022C8.17969 5.23281 7.35755 5.14887 6.52716 4.99222C6.60252 5.08392 6.67788 5.17562 6.75553 5.27009C7.33753 5.98425 7.88191 6.69348 8.35116 7.48822C9.43255 6.09128 9.88167 4.55466 10.3672 2.88022C11.3176 2.88022 12.268 2.88022 13.2472 2.88022C13.2986 3.08614 13.3501 3.29206 13.4032 3.50422C13.7741 4.91169 14.3243 6.14406 15.0712 7.39222C15.1345 7.39222 15.1979 7.39222 15.2632 7.39222C15.3882 7.25 15.3882 7.25 15.5103 7.06222C15.5583 6.99242 15.6062 6.92261 15.6557 6.8507C15.7063 6.77596 15.757 6.70122 15.8092 6.62422C16.2058 6.04919 16.6075 5.50172 17.0872 4.99222C17.032 5.00094 16.9769 5.00967 16.92 5.01866C16.6678 5.0583 16.4155 5.09726 16.1632 5.13622C16.0764 5.14996 15.9897 5.16369 15.9003 5.17784C15.4595 5.2454 15.0387 5.29806 14.5912 5.28022C14.2329 4.49437 13.9912 3.72721 13.8232 2.88022C13.9147 2.87376 13.9147 2.87376 14.0081 2.86716C17.4724 2.62396 17.4724 2.62396 20.8958 2.06342C21.2895 1.98021 21.6844 1.90261 22.0792 1.82422C21.7832 2.23211 21.4787 2.62407 21.1483 3.00479C20.4426 3.81958 19.8158 4.68476 19.1992 5.56822C19.1355 5.65913 19.1355 5.65913 19.0706 5.75188C18.535 6.52195 18.0462 7.31787 17.5672 8.12422C17.513 8.21533 17.4588 8.30644 17.4029 8.40031C17.3522 8.48666 17.3014 8.57301 17.2492 8.66197C17.204 8.73877 17.1588 8.81557 17.1123 8.8947C16.9888 9.12464 16.8914 9.35624 16.7992 9.60022C17.1886 10.0503 17.5829 10.496 17.9812 10.9382C18.062 11.0282 18.1428 11.1182 18.226 11.2108C18.4118 11.4279 18.4118 11.4279 18.6232 11.5202C18.6491 11.3991 18.6751 11.2779 18.7019 11.1531C18.7757 10.8204 18.8574 10.4913 18.9464 10.1623C19.2007 9.21068 19.4081 8.28957 19.51 7.30829C19.6462 6.03322 19.8951 5.21481 20.7843 4.28113C20.9994 4.05083 21.1856 3.80236 21.3772 3.55222C21.4805 3.42209 21.5855 3.29314 21.6952 3.16822C21.7268 3.16822 21.7585 3.16822 21.7912 3.16822C22.0107 8.24104 20.0585 13.9825 16.8952 17.9522C16.8351 18.0318 16.7751 18.1114 16.7133 18.1933C15.6751 19.5306 14.3908 20.8748 12.9592 21.7922C12.8958 21.7922 12.8324 21.7922 12.7672 21.7922C12.8195 21.4376 12.8888 21.0876 12.9592 20.7362C12.9755 20.6382 12.9755 20.6382 12.9922 20.5383C13.2139 19.2465 13.7157 18.6363 14.7089 17.8124C15.1118 17.4618 15.4253 17.0346 15.7432 16.6082C15.7811 16.5583 15.819 16.5084 15.858 16.457C16.5461 15.5478 17.3001 14.5294 17.6632 13.4402C17.3635 13.1378 17.0634 12.836 16.7632 12.5342C16.6778 12.448 16.5924 12.3618 16.5044 12.273C16.4227 12.191 16.3411 12.1091 16.2569 12.0246C16.1438 11.9107 16.1438 11.9107 16.0284 11.7946C15.8519 11.6111 15.8519 11.6111 15.6472 11.5202C15.6145 11.6297 15.6145 11.6297 15.5812 11.7415C15.4444 12.1265 15.2806 12.4918 15.1116 12.8634C13.7356 15.897 12.772 19.0658 12.0596 22.3137C11.9992 22.5602 11.9992 22.5602 11.9032 22.7522C11.8081 22.7522 11.7131 22.7522 11.6152 22.7522C11.5988 22.6785 11.5825 22.6049 11.5657 22.529C10.8762 19.4423 9.9849 16.4565 8.75916 13.5362C8.71618 13.4337 8.6732 13.3311 8.62891 13.2255C8.37689 12.6361 8.10003 12.073 7.77516 11.5202C7.70784 11.5956 7.64052 11.6709 7.57116 11.7486C7.05909 12.3172 6.54627 12.8599 5.95116 13.3442C6.00813 13.789 6.19471 14.1419 6.41316 14.5262C6.4511 14.5931 6.48905 14.6599 6.52814 14.7288C7.4248 16.2678 8.62995 17.721 9.98084 18.8834C10.2178 19.1527 10.2745 19.3615 10.3597 19.7087C10.3887 19.8244 10.4178 19.9401 10.4478 20.0593C10.4766 20.1798 10.5054 20.3002 10.5352 20.4242C10.5655 20.5461 10.5958 20.668 10.627 20.7936C10.7016 21.0942 10.7749 21.395 10.8472 21.6962C10.7838 21.7279 10.7204 21.7596 10.6552 21.7922C5.78931 18.3204 3.07335 12.7838 2.08716 6.98422C1.883 5.72195 1.70969 4.44877 1.72716 3.16822C3.56269 4.61569 3.95381 6.20239 4.23159 8.40875C4.31248 9.02976 4.45038 9.62433 4.63116 10.2242C4.65486 10.3038 4.67857 10.3833 4.70299 10.4653C4.80656 10.7988 4.91524 11.1193 5.08716 11.4242C5.28578 11.2308 5.48365 11.0367 5.68116 10.8422C5.73666 10.7883 5.79216 10.7344 5.84934 10.6789C6.21983 10.3126 6.52316 9.93589 6.81516 9.50422C5.40523 7.07291 3.91641 4.72101 2.05598 2.60258C1.83942 2.35382 1.67551 2.12166 1.53516 1.82422ZM11.7112 5.37622C11.6534 5.50541 11.6534 5.50541 11.5945 5.63722C10.9882 6.97567 10.3114 8.24533 9.40716 9.40822C9.48568 9.57435 9.48568 9.57435 9.56578 9.74384C10.5127 11.778 11.2169 13.8437 11.7112 16.0322C11.8956 15.7556 11.962 15.5748 12.0453 15.2586C12.0715 15.1611 12.0977 15.0636 12.1247 14.9631C12.1526 14.8586 12.1805 14.754 12.2092 14.6462C12.6336 13.1 13.0998 11.6132 13.855 10.1931C14.0689 9.79351 14.0689 9.79351 14.0695 9.35534C13.9951 9.23896 13.9951 9.23896 13.9192 9.12022C13.8849 9.0664 13.8506 9.01257 13.8152 8.95712C13.6885 8.76158 13.5579 8.56903 13.4272 8.37622C12.7993 7.4306 12.315 6.43358 11.9032 5.37622C11.8398 5.37622 11.7764 5.37622 11.7112 5.37622Z" fill="url(#paint0_linear_2016_627)"/>
</g>
<defs>
<filter id="filter0_d_2016_627" x="0.535156" y="0.824219" width="22.5449" height="22.928" filterUnits="userSpaceOnUse" color-interpolation-filters="sRGB">
<feFlood flood-opacity="0" result="BackgroundImageFix"/>
<feColorMatrix in="SourceAlpha" type="matrix" values="0 0 0 0 0 0 0 0 0 0 0 0 0 0 0 0 0 0 127 0" result="hardAlpha"/>
<feOffset/>
<feGaussianBlur stdDeviation="0.5"/>
<feComposite in2="hardAlpha" operator="out"/>
<feColorMatrix type="matrix" values="0 0 0 0 0.373347 0 0 0 0 0.303656 0 0 0 0 0 0 0 0 1 0"/>
<feBlend mode="normal" in2="BackgroundImageFix" result="effect1_dropShadow_2016_627"/>
<feBlend mode="normal" in="SourceGraphic" in2="effect1_dropShadow_2016_627" result="shape"/>
</filter>
<linearGradient id="paint0_linear_2016_627" x1="11.8072" y1="1.82422" x2="11.8072" y2="22.7522" gradientUnits="userSpaceOnUse">
<stop stop-color="#F9F8F3"/>
<stop offset="1" stop-color="#E7BA90"/>
</linearGradient>
</defs>
</svg>
