<svg width="360" height="508" viewBox="0 0 360 508" fill="none" xmlns="http://www.w3.org/2000/svg">
<g clip-path="url(#clip0_2005_407)">
<path d="M1.79871 135.464C1.88846 131.601 1.82962 144.496 1.96366 135.933C1.97271 137.719 1.98205 139.515 1.99111 141.301C1.94147 141.754 1.89195 142.218 1.84231 142.671C1.8277 140.273 1.81332 137.874 1.79871 135.464C1.79863 135.464 1.79879 135.464 1.79871 135.464ZM1.17704 132.19C1.31862 134.387 1.35637 141.369 1.48702 133.827C1.43843 133.227 1.38985 132.613 1.34126 132.014C1.37895 129.395 1.41662 126.761 1.4541 124.142C1.43558 123.2 1.41704 122.26 1.39872 121.318C1.48315 120.119 1.56782 118.93 1.65246 117.731C1.6401 118.796 1.62753 119.875 1.61517 120.94C1.68374 125.149 1.70249 128.895 1.71526 134.61C1.73524 134.108 1.75504 133.605 1.77502 133.103C1.74104 136.003 1.70697 138.902 1.67299 141.79C1.63963 139.282 1.60253 136.478 1.57144 134.153C1.43905 137.873 1.51273 144.434 1.54035 147.849C1.57804 152.499 1.51508 151.448 1.54144 154.899C1.54556 155.45 1.5949 155.512 1.59573 156.601C1.59965 162.096 1.57349 172.769 1.45836 166.527C1.47319 157.483 1.38073 149.77 1.4145 140.896C1.28137 143.244 1.23607 138.569 1.17704 132.19ZM1.60096 298.34C1.5363 295.599 1.56239 290.017 1.60727 286.235C1.60727 286.231 1.60727 286.227 1.60727 286.222C1.61716 285.39 1.70309 283.505 1.69959 286.222C1.69359 290.651 1.55832 292.793 1.65015 295.118C1.63306 296.158 1.61784 297.251 1.60096 298.34ZM1.60898 307.966C1.57581 310.683 1.47389 309.451 1.50148 306.049C1.50156 306.049 1.50139 306.049 1.50148 306.049C1.51301 304.629 1.59333 307.416 1.51156 302.324C1.57517 301.285 1.63305 300.261 1.69461 299.233C1.69564 300.48 1.69731 301.617 1.69813 302.924C1.59356 302.044 1.64187 305.25 1.60898 307.966ZM1.51593 171.119C1.61 171.546 1.60941 169.757 1.67469 166.71C1.6716 169.585 1.6683 172.462 1.66521 175.325C1.61539 173.919 1.56575 172.526 1.51593 171.119ZM1.53051 103.559C1.53051 103.555 1.53051 103.551 1.53051 103.546C1.51568 102.604 1.50079 101.659 1.48617 100.729C1.51974 100.166 1.55317 99.6092 1.58674 99.0461C1.55523 95.7173 1.52372 92.3705 1.492 89.0417C1.59456 89.446 1.57787 95.4216 1.64955 98.7135C1.61865 103.608 1.55912 105.967 1.4722 106.285C1.49156 105.38 1.51115 104.477 1.53051 103.559ZM359.108 457.639C359.081 456.526 359.051 455.426 359.025 454.313C359.012 455.792 359.002 457.26 358.985 458.755C359.111 462.658 359.002 463.024 359.008 468.14C359.031 483.817 359.224 479.658 358.942 493.814C358.955 482.449 358.822 486.817 358.723 479.964C358.799 478.542 358.975 485.332 359.012 480.731C358.929 472.804 358.852 465.177 358.799 456.38C358.786 456.635 358.773 456.891 358.759 457.15C358.766 458.546 358.776 459.928 358.783 461.323C358.749 459.818 358.713 458.346 358.676 456.818C358.756 458.752 358.713 453.821 358.806 454.483C358.846 454.775 358.905 456.954 358.945 458.24C358.965 454.921 358.985 451.523 359.008 448.17C359.041 449.905 359.075 451.642 359.108 453.366C359.108 454.785 359.108 456.194 359.111 457.612C359.108 457.622 359.108 457.629 359.108 457.639ZM98.1003 0.883474C102.304 0.786516 109.942 0.770474 113.963 0.878365C108.672 0.880016 103.391 0.881823 98.1003 0.883474ZM1.40054 106.605C1.417 106.128 1.43327 105.666 1.44973 105.19C1.48021 107.294 1.51048 109.411 1.54095 111.516C1.49339 111.919 1.44582 112.332 1.39847 112.748C1.39909 110.705 1.39992 108.648 1.40054 106.605ZM1.4535 241.254C1.45062 239.714 1.45218 239.578 1.45896 237.661C1.45892 237.663 1.45888 237.665 1.45884 237.667C1.46137 236.907 1.48915 230.547 1.52577 231.256C1.52639 234.414 1.52577 237.782 1.52577 241.013C1.50168 241.111 1.47779 241.132 1.4535 241.254ZM1.47487 204.086C1.47495 204.082 1.47504 204.078 1.47512 204.073C1.48068 202.924 1.492 201.835 1.49407 200.649C1.5517 204.919 1.4483 205.594 1.47755 209.473C1.507 213.352 1.56405 215.749 1.4224 219.041C1.40119 217.817 1.37084 216.499 1.34612 215.239C1.40276 209.732 1.34946 208.249 1.29365 203.832C1.35419 203.918 1.41433 204.001 1.47487 204.086ZM333.331 506.212C332.28 506.282 331.108 506.212 330.987 506.212C330.989 506.212 330.991 506.212 330.993 506.212C321.686 506.275 332.203 506.172 323.42 506.162C324.727 506.142 326.013 506.126 327.308 506.106C329.311 506.142 331.376 506.179 333.331 506.212ZM30.9075 506.205C30.822 506.182 30.7196 506.162 30.634 506.142C35.9127 506.149 37.2587 506.066 41.6452 506.139C38.0658 506.162 34.487 506.182 30.9075 506.205ZM1.30519 267.902C1.26626 262.04 1.2491 257.704 1.31089 252.074C1.31097 252.07 1.31106 252.065 1.31114 252.061C1.31494 251.736 1.3576 253.306 1.36835 252.883C1.36197 251.721 1.35216 250.522 1.34454 249.348C1.3787 249.189 1.41286 249.037 1.44682 248.878C1.43714 252.182 1.42746 255.488 1.41778 258.804C1.43776 258.315 1.45757 257.814 1.47755 257.324C1.48784 260.138 1.4981 262.942 1.5084 265.757C1.45239 264.778 1.39638 263.802 1.34017 262.835C1.32843 264.523 1.31713 266.214 1.30519 267.902ZM118.79 506.428C117.861 506.405 119.58 506.368 118.138 506.348C116.696 506.328 114.038 506.372 114.661 506.308C116.603 506.298 118.641 506.292 120.619 506.282C114.253 506.169 107.902 506.272 107.804 506.129C113.914 506.166 118.938 506.149 124.852 506.112C124.608 506.222 118.692 506.318 122.417 506.421C121.22 506.425 119.963 506.428 118.802 506.428C118.798 506.428 118.794 506.428 118.79 506.428ZM0.00852406 20.9604C0.0131016 18.9967 0.00188661 15.6587 0.000955391 12.2842C-0.040501 9.17339 1.27358 6.16649 2.69953 4.42105C3.33702 3.315 6.70638 1.07547 6.75534 1.22655C6.64399 1.30023 2.7401 4.06239 7.03258 1.26126C5.51514 2.08078 4.21075 3.18431 3.14921 4.52627C3.38767 4.32408 3.6315 4.13345 3.87228 3.96153C5.25034 2.44015 7.01765 1.26686 8.96219 0.59586C9.06429 0.582608 9.16619 0.570801 9.26839 0.560154C5.79586 1.81951 5.41838 2.71705 5.15866 2.85072C4.95788 3.08853 4.99901 2.95601 3.75463 4.37394C6.03591 1.74638 9.50423 0.202226 12.9373 0.264856C10.9519 0.227684 8.64664 0.878085 7.1302 1.74808C7.05494 1.85342 7.91179 1.3692 8.94926 1.01682C9.98059 0.646553 11.1851 0.456096 11.5362 0.43225C13.4443 0.451837 9.78299 0.039061 6.19629 2.54371C2.41467 4.91101 0.912685 10.4105 1.19779 12.2842C1.20692 12.5955 1.21704 12.8215 1.2283 12.9451C1.22943 12.7256 1.23057 12.5052 1.23171 12.2842C1.22292 9.28335 2.49402 6.19888 4.65431 4.06644C4.01226 4.74154 3.44555 5.50215 2.98495 6.30708C1.91367 8.0284 1.27769 10.1131 1.26114 12.2842C1.20708 18.0812 1.17459 24.2732 1.12736 30.6388C1.13168 31.4336 1.13612 32.2301 1.14023 33.0126C1.18738 32.7802 1.23435 32.5603 1.2815 32.328C1.28706 33.5272 1.29258 34.7415 1.29814 35.9411C1.14285 32.4048 1.14497 37.3019 1.05023 43.213C0.995654 40.0679 1.02874 36.1886 0.927058 36.4564C1.00529 47.2498 0.89473 59.8896 0.983056 70.3894C1.00489 72.9956 1.13605 72.9873 1.12396 79.1154C1.10954 78.9074 1.08351 78.8719 1.06456 78.7373C1.12738 89.3357 1.16493 95.7664 1.10088 106.781C1.14802 106.145 1.19537 105.519 1.24251 104.883C1.21903 102.546 1.19517 100.204 1.17169 97.8787C1.24954 96.288 1.2839 98.6388 1.28308 91.6635C1.28246 85.9481 1.24809 89.3503 1.22502 87.7959C1.19352 85.6913 1.25548 83.8445 1.22028 81.5808C1.1933 79.8306 1.12906 81.7239 1.14533 77.1589C1.22855 78.9948 1.31447 80.8675 1.39872 82.7156C1.37997 83.8292 1.36094 84.9342 1.34199 86.0481C1.31974 84.9222 1.29779 83.8152 1.27555 82.6894C1.3155 86.6544 1.35319 90.4008 1.39459 94.5003C1.2743 93.1662 1.3194 97.4039 1.33361 99.7049C1.35583 103.289 1.27304 100.218 1.28684 102.568C1.30086 104.918 1.39334 107.452 1.37357 111.699C1.32003 109.422 1.27201 112.518 1.22259 111.92C1.17316 111.321 1.16222 106.829 1.10829 111.144C1.14928 119.442 1.33749 110.438 1.36798 116.042C1.40464 122.772 1.09784 124.374 1.03189 122.368C0.979977 120.789 0.99042 115.357 0.93872 113.766C0.845419 123.495 1.02961 123.58 1.06565 125.244C1.19684 131.29 0.846683 127.229 0.973337 134.388C0.907855 134.253 0.848958 134.144 0.786157 134.01C0.798102 135.245 0.813977 136.065 0.823447 137.557C0.951033 133.156 0.945563 136.759 0.945762 138.607C0.946177 141.52 1.00841 137.021 1.02448 137.792C1.06747 139.873 1.04795 143.163 1.10416 141.144C1.078 142.05 1.05176 143.032 1.02581 143.962C1.05841 147.365 1.33171 155.363 1.27652 147.751C1.37806 148.461 1.32926 150.923 1.31381 152.845C1.29838 154.766 1.36304 154.73 1.3511 156.419C1.30331 163.136 1.19269 158.742 1.10598 157.677C1.16571 166.55 1.20522 157.863 1.24518 170.649C1.31583 171.885 1.39121 165.978 1.432 170.897C1.30926 171.803 1.2211 175.425 1.18032 182.486C1.20853 183.171 1.237 183.855 1.26522 184.541C1.15194 188.396 1.03414 186.425 1.17461 193.56C0.916118 189.73 1.08149 192.363 0.976252 198.751C0.955037 200.049 0.901407 197.051 0.874221 198.862C0.861958 199.684 0.902439 201.677 0.871182 203.682C0.855738 204.661 0.756068 209.239 0.803406 212.408C0.928637 210.083 1.03517 216.105 1.13877 210.941C1.11324 220.487 1.17336 227.168 1.00261 216.471C0.964713 218.895 0.926975 221.32 0.889283 223.743C0.919147 225.432 0.948778 227.135 0.978438 228.837C0.875514 229.093 0.84664 228.835 0.864744 235.489C0.840453 232.602 0.815758 229.727 0.791259 226.828C0.770474 226.73 0.74887 226.327 0.728703 226.424C0.768232 229.975 0.785248 239.973 0.812637 242.395C0.840029 244.819 0.847529 240.139 0.874098 240.837C1.0932 246.649 0.931605 246.188 0.969207 250.359C0.991451 252.806 1.01561 246.962 1.02508 248.272C1.05981 253.127 0.943361 255.38 0.941878 259.685C1.00797 258.156 1.0751 256.638 1.14181 255.146C1.13831 259.662 1.13772 264.696 1.15894 268.894C1.16722 270.542 1.21638 269.296 1.21967 269.566C1.23656 270.901 1.26331 276.334 1.26352 276.909C1.26391 281.239 1.19583 281.363 1.1921 285.57C1.18633 283.918 1.18114 282.365 1.17558 280.75C1.06519 280.016 0.954811 279.267 0.844218 278.533C0.836184 282.657 0.82832 286.782 0.820289 290.918C0.857151 287.895 0.893838 284.862 0.930703 281.84C1.01988 286.563 1.10927 291.288 1.19866 296.011C1.14387 298.471 1.0891 300.921 1.03431 303.381C1.04877 310.061 1.27116 308.716 1.07634 311.885C1.09281 313.855 1.10927 315.825 1.12554 317.794C1.09774 317.513 1.06989 317.234 1.04209 316.953C1.05918 319.327 1.07616 321.7 1.09347 324.075C1.19191 321.578 1.2955 319.131 1.39106 316.659C1.41245 321.332 1.32894 321.421 1.3081 322.118C1.2529 323.966 1.32736 327.634 1.27628 329.103C1.25874 329.599 1.20376 325.021 1.14036 326.599C1.12806 326.907 0.894982 333.037 0.948801 336.947C0.991027 336.874 1.0428 336.572 1.08873 336.413C1.11438 341.675 0.893974 344.356 0.832191 343.658C0.875441 346.462 0.879057 350.558 0.946615 351.133C0.948263 352.565 0.949826 353.987 0.951474 355.419C0.78694 353.927 0.817025 359.9 0.95852 360.289C0.962019 357.831 0.965704 355.369 0.969207 352.907C1.14263 354.768 1.24731 347.293 1.08667 362.847C0.99645 365.82 1.09896 357.562 1.0314 359.983C0.992078 364.193 1.02498 368.146 0.962162 372.146C0.883691 377.126 0.808219 371 0.908111 382.601C1.15836 357.01 1.07716 386.112 1.15481 398.129C0.907643 401.434 0.829355 411.583 0.902886 425.56C0.971675 424.105 0.936236 419.706 0.958881 417.175C0.981537 414.64 1.02235 417.381 1.05448 414.224C1.0866 411.068 1.13027 404.364 1.17886 401.168C1.21779 403.876 1.30984 417.234 1.19927 408.401C1.1311 414.995 1.06106 418.091 1.04828 426.264C1.15559 428.712 1.22241 428.533 1.2255 436.496C1.07639 431.785 0.972756 440.838 0.81871 438.845C0.854591 433.197 1.00431 436.353 1.07598 433.088C1.08314 432.752 1.0456 427.49 1.04828 426.264C0.913783 431.576 0.863719 433.413 0.703679 430.144C0.717687 433.902 0.697592 436.241 0.77401 436.583C0.74086 437.367 0.70768 438.154 0.674529 438.925C0.675352 440.147 0.678423 441.247 0.677806 442.543C0.793076 440.759 0.722119 444.217 0.774375 446.679C0.826691 449.137 0.917684 445.838 0.918921 452.592C0.945902 450.343 0.969055 448.283 0.994592 446.104C1.02425 450.459 1.05409 454.831 1.08375 459.187C1.15418 456.127 1.2588 449.496 1.35146 449.679C1.31648 451.685 1.37796 458.559 1.38049 459.31C1.38997 462.223 1.33153 460.635 1.33009 460.858C1.30169 465.432 1.32158 469.203 1.23303 470.941C1.27299 474.379 1.25021 476.97 1.25247 480.618C1.25371 482.625 1.31875 482.236 1.3064 483.409C1.23301 490.365 1.15829 485.219 1.25598 494.664C1.26952 495.794 1.43654 497.149 1.99915 498.651C1.56584 497.359 1.36989 496.01 1.40534 494.664C1.41603 494.242 1.4267 493.817 1.43734 493.395C1.4416 493.817 1.44586 494.242 1.45013 494.664C1.46273 495.893 1.66932 497.109 2.06599 498.269C2.40039 499.305 2.88072 500.289 3.49511 501.192C3.40097 501.229 3.30368 501.262 3.20895 501.299C3.8966 502.319 4.74871 503.232 5.71735 503.993C4.04255 502.704 2.71623 500.953 1.93654 498.983C1.84984 498.81 1.77166 498.648 1.69314 498.468C2.67012 501.478 4.90401 504.053 7.76325 505.451C7.83301 505.445 7.90191 505.441 7.97117 505.435C10.039 506.388 11.6467 506.541 12.9373 506.561C15.7178 506.578 17.2763 506.571 21.9083 506.508C27.1505 506.508 31.4194 506.365 34.4499 506.305C35.5372 506.325 36.6259 506.345 37.7254 506.362C38.4217 506.335 39.1256 506.305 39.8221 506.279C41.2027 506.318 42.6025 506.358 43.983 506.395C44.7526 506.305 45.1509 506.279 39.7634 506.245C41.6087 506.136 51.0941 506.186 54.9554 506.222C57.8847 506.249 54.6343 506.345 55.0008 506.355C56.2242 506.395 61.0521 506.362 62.0661 506.365C66.355 506.392 69.3603 506.388 73.2335 506.408C73.9875 506.415 76.0958 506.471 76.2746 506.475C77.6677 506.485 81.1058 506.514 81.4969 506.514C101.667 506.558 80.115 506.302 98.8702 506.328C98.3083 506.295 97.7918 506.262 97.2422 506.229C98.6589 506.225 100.091 506.222 101.508 506.222C103.304 506.249 101.131 506.302 104.698 506.259C104.466 506.302 104.233 506.342 103.988 506.385C105.54 506.362 107.036 506.338 108.625 506.318C111.118 506.461 120.218 506.494 119.571 506.664C119.351 506.72 112.899 506.78 116.309 506.843C119.079 506.857 117.204 506.787 118.334 506.783C126.496 506.757 126.022 506.853 129.358 506.827C129.883 506.787 130.436 506.744 130.973 506.704C132.231 506.714 133.493 506.727 134.763 506.74C135.056 506.71 135.362 506.684 135.655 506.654C134.47 506.654 133.135 506.651 132.047 506.651C133.564 506.541 147.49 506.494 142.18 506.584C140.017 506.624 136.056 506.607 138.559 506.734C142.286 506.717 146.514 506.697 150.437 506.681C150.559 506.707 150.672 506.734 150.795 506.76C156.081 506.744 151.273 506.634 151.283 506.574C152.492 506.574 153.714 506.571 154.923 506.571C155.436 506.597 155.923 506.624 156.46 506.651C156.509 506.607 157.186 506.511 160.79 506.548C163.107 506.571 159.458 506.677 163.877 506.661C163.547 506.597 161.95 506.514 166.872 506.494C167.361 506.564 168.037 506.627 168.415 506.7C174.536 506.634 177.321 506.74 184.506 506.661C189.063 506.614 195.307 506.441 198.252 506.707C201.586 506.714 200.528 506.647 201.515 506.634C206.17 506.561 209.633 506.687 210.501 506.697C216.033 506.744 218.514 506.7 223.022 506.76C222.778 506.71 222.645 506.664 222.45 506.614C218.319 506.691 216.228 506.687 210.435 506.671C212.378 506.661 214.321 506.651 216.263 506.641C215.946 506.601 215.631 506.561 215.326 506.521C197.412 506.677 201.59 506.428 216.609 506.375C217.904 506.448 219.246 506.521 220.529 506.597C229.204 506.485 233.287 506.581 243.098 506.604C244.265 506.607 248.513 506.564 250.339 506.564C250.309 506.561 250.278 506.561 250.248 506.561C251.384 506.491 249.845 506.461 249.662 506.398C250.652 506.388 251.642 506.382 252.631 506.375C254.841 506.421 254.064 506.461 258.414 506.448C257.827 506.401 257.248 506.355 256.662 506.308C261.428 506.305 264.547 506.358 268.982 506.335C268.237 506.352 267.5 506.372 266.755 506.388C276.409 506.435 268.726 506.714 276.021 506.574C276.486 506.597 276.938 506.624 277.402 506.647C274.397 506.654 271.389 506.661 268.396 506.664C268.335 506.7 268.269 506.734 268.22 506.767C271.434 506.757 274.664 506.747 277.877 506.737C275.531 506.76 273.171 506.784 270.825 506.807C274.551 506.823 278.279 506.84 282.005 506.857C278.048 506.73 283.179 506.714 282.214 506.588C288.813 506.694 293.996 506.83 304.224 506.744C306.251 506.724 305.15 506.637 310.905 506.744C309.512 506.604 316.721 506.538 315.795 506.405C313.792 506.411 311.714 506.418 309.772 506.425C311.983 506.471 312.35 506.597 308.99 506.634C304.701 506.684 298.446 506.594 298.702 506.737C296.991 506.73 295.401 506.724 293.74 506.72C294.423 506.684 295.093 506.651 295.765 506.614C291.038 506.671 288.068 506.651 285.795 506.564C291.428 506.544 297.048 506.524 302.68 506.504C301.851 506.498 301.01 506.491 300.18 506.485C304.444 506.395 300.045 506.312 308 506.292C307.952 506.332 307.912 506.375 307.864 506.415C310.76 506.305 318.689 506.305 316.16 506.179C318.554 506.219 319.043 506.242 320.399 506.176C326.716 506.272 330.774 506.391 328.525 506.538C330.871 506.514 333.218 506.491 335.55 506.468C334.197 506.428 332.837 506.388 331.482 506.348C335.563 506.352 339.673 506.355 343.743 506.355C344.135 506.471 335.889 506.391 338.267 506.494C338.744 506.518 340.94 506.471 341.518 506.485C347.601 506.611 338.048 506.518 339.842 506.617C346.214 506.637 344.526 506.727 347.292 506.727C348.434 506.677 350.619 506.764 353.8 504.754C354.096 504.601 354.407 504.421 354.673 504.259C356.394 502.883 356.925 501.976 357.429 501.206C357.894 500.405 358.351 499.661 358.869 497.857C359.131 496.897 359.317 495.807 359.337 494.664C359.363 493.123 359.386 491.515 359.333 490.026C359.317 489.565 359.151 493.907 359.157 484.781C359.164 477.701 359.28 480.648 359.32 476.818C359.363 472.987 359.201 464.227 359.383 461.642C359.36 463.648 359.347 466.207 359.327 468.432C359.363 469.336 359.396 470.22 359.433 471.113C359.386 466.02 359.439 460.758 359.356 457.333C359.486 450.539 359.366 442.945 359.22 444.998C359.24 447.234 359.303 444.802 359.264 447.908C359.23 448.227 359.197 448.562 359.161 448.878C359.167 443.592 359.164 439.921 359.267 442.333C359.27 441.513 359.274 440.699 359.277 439.878C359.201 439.732 359.124 439.603 359.051 439.456C359.041 438.476 359.035 437.493 359.025 436.513C359.041 435.427 359.058 434.334 359.075 433.234C359.194 434.716 359.197 437.237 359.264 428.892C359.224 428.865 359.184 428.829 359.141 428.805C359.194 421.819 359.293 421.633 359.29 412.859C359.433 419.59 359.181 423.274 359.466 423.248C359.446 424.938 359.426 426.639 359.41 428.33C359.449 428.586 359.492 428.842 359.532 429.085C359.509 420.018 359.237 404.956 359.42 398.883C359.396 398.149 359.376 397.411 359.353 396.667C359.463 390.717 359.217 388.149 359.36 382.116C359.373 381.494 359.605 382.797 359.595 374.943C359.565 375.139 359.516 375.239 359.479 375.398C359.496 373.697 359.516 372.006 359.536 370.319C359.506 370.013 359.479 369.691 359.453 369.385C359.439 372.285 359.429 375.179 359.42 378.079C359.41 375.667 359.4 373.242 359.39 370.834C359.347 373.976 359.343 375.395 359.274 373.501C359.267 370.77 359.264 368.04 359.26 365.309C359.24 365.026 359.221 364.747 359.204 364.468C359.148 365.791 359.094 367.126 359.038 368.445C359.085 361.336 359.084 355.153 359.194 349.695C359.214 348.764 359.284 352.057 359.22 345.718C359.257 345.618 359.29 345.449 359.323 345.339C359.217 337.579 359.25 335.031 359.327 326.941C359.254 332.18 359.3 327.506 359.264 326.172C359.237 325.258 359.24 328.825 359.211 328.422C359.184 328.018 359.075 323.382 359.061 327.346C359.287 337.064 359.015 339.711 359.124 352.193C359.094 350.273 359.065 348.336 359.035 346.416C359.015 347.319 358.998 348.13 358.978 349.11C359.021 342.147 358.992 345.532 358.958 342.672C358.922 339.808 358.892 334.602 358.882 331.115C358.879 330.016 358.932 331.176 358.935 328.696C358.939 327.007 358.862 322.392 358.952 321.326C359.012 320.629 359.171 328.043 359.171 317.791C359.227 315.862 359.211 320.777 359.217 320.882C359.283 321.776 359.337 315.473 359.284 312.561C359.28 312.325 359.227 314.625 359.207 312.124C359.157 306.188 359.217 302.76 359.3 298.917C359.204 298.501 359.088 293.506 359.124 287.289C359.094 286.971 359.068 286.667 359.041 286.349C359.055 287.315 359.068 288.28 359.085 289.245C359.068 290.298 359.055 291.413 359.035 292.441C359.012 286.189 358.876 285.304 358.829 282.306C358.663 272.046 359.015 278.264 359.075 280.115C359.051 281.449 359.021 282.739 358.998 284.06C359.031 283.914 359.065 283.764 359.098 283.63C359.098 268.271 359.317 281.291 359.38 273.495C359.214 271.488 359.197 265.762 359.303 258.469C359.3 257.661 359.3 256.851 359.3 256.043C359.277 255.908 359.24 255.91 359.224 255.69C359.194 246.903 359.449 245.338 359.473 244.506C359.579 240.81 359.433 237.932 359.433 236.842C359.426 232.253 359.492 230.92 359.463 226.551C359.433 221.852 359.383 225.065 359.337 223.636C359.3 222.489 359.297 218.782 359.257 217.251C359.29 217.859 359.32 218.536 359.35 219.142C359.39 214.273 359.429 210.293 359.439 204.762C359.217 198.521 359.592 193.21 359.29 195.364C359.267 200.602 359.234 203.531 359.157 206.333C359.148 202.895 359.138 199.454 359.128 196.016C359.161 195.013 359.194 194.3 359.227 193.114C359.157 190.544 359.187 184.587 359.164 182.248C359.068 171.295 358.948 174.683 359.151 164.685C359.171 171.891 359.27 171.88 359.257 179.027C359.327 177.485 359.31 173.853 359.396 176.203C359.376 169.289 359.3 171.524 359.234 168.833C359.174 166.512 359.171 161.838 359.098 162.103C359.138 161.624 359.177 161.255 359.22 160.779C359.217 156.3 359.217 151.822 359.217 147.343C359.26 149.252 359.303 151.161 359.347 153.07C359.363 151.627 359.38 150.182 359.396 148.739C359.26 137.725 359.506 118.731 359.171 121.765C359.161 116.454 359.204 115.789 359.267 112.902C359.24 112.584 359.22 112.274 359.191 111.956C359.217 108.53 359.121 105.9 359.148 102.878C359.171 99.8557 359.26 99.1052 359.111 98.6647C359.154 96.7069 359.191 94.7605 359.23 92.8147C359.197 91.6406 359.161 90.4679 359.128 89.3061C359.144 87.4703 359.164 85.6305 359.181 83.795C359.108 82.8139 359.141 75.5962 359.091 72.4146C359.171 69.394 359.416 69.4771 359.373 62.371C359.31 62.5543 359.25 62.7351 359.187 62.9188C359.201 61.2913 359.214 59.6604 359.227 58.0209C359.247 57.9229 359.267 57.8382 359.287 57.7405C359.28 58.5724 359.274 59.3933 359.267 60.2252C359.303 59.5033 359.337 58.796 359.37 58.086C359.32 55.602 359.27 53.1147 359.22 50.6184C359.181 53.9835 359.144 57.3495 359.104 60.7142C359.061 56.492 359.104 53.5533 359.055 49.8816C359.141 46.688 359.187 47.867 359.28 49.1643C359.274 47.9777 359.264 46.777 359.257 45.5903C359.35 46.373 359.403 44.3658 359.396 51.3035C359.423 50.8264 359.446 50.3397 359.473 49.8749C359.469 48.7371 359.492 47.9989 359.483 46.7511C359.453 43.3489 359.293 40.7403 359.237 40.9729C359.207 41.0981 359.264 44.4532 359.22 44.3186C359.121 43.9864 359.167 36.2909 359.065 47.3903C358.998 43.7067 359.048 42.8838 359.065 38.8207C359.031 39.1387 358.998 39.4476 358.965 39.7533C358.982 37.8693 358.995 35.9826 359.012 34.0989C359.187 36.7178 359.25 22.8268 359.403 35.3315C359.413 31.6362 359.42 27.9535 359.429 24.2704C359.446 25.029 359.463 25.7879 359.483 26.5466C359.473 28.2108 359.463 29.865 359.453 31.5292C359.486 29.5717 359.519 27.6106 359.552 25.6531C359.512 21.0271 359.449 19.2137 359.373 17.0964C359.317 22.4801 359.393 20.7212 359.406 24.9161C359.36 24.7696 359.313 24.9632 359.264 24.5965C359.363 22.4289 359.29 15.3578 359.284 13.7182C359.284 13.1225 359.284 12.6537 359.284 12.2842C359.111 9.5556 359.529 12.2178 359.002 9.2992C358.252 5.94443 355.383 2.82771 352.938 1.54108C352.958 1.61295 353.124 1.76729 353.27 1.90929C350.978 0.659603 349.873 0.616611 349.442 0.48389C348.994 0.391055 349.12 0.395361 348.851 0.353697C348.321 0.276138 347.803 0.237116 347.292 0.230298C339.67 0.128431 335.006 0.232528 325.802 0.245879C327.048 0.262999 328.307 0.278453 329.566 0.294539C322.163 0.411888 327.15 0.375956 333.577 0.414735C327.553 0.402978 324.102 0.502913 319.85 0.532619C315.598 0.562276 308.306 0.510949 305.642 0.47094C311.739 0.406576 318.316 0.449024 325.085 0.43128C324.316 0.374979 323.568 0.327329 322.774 0.265464C318.656 0.383633 316.27 0.304622 314.914 0.288945C310.932 0.242963 311.057 0.344388 308.65 0.235295C308.748 0.272826 308.819 0.30438 308.917 0.339432C300.694 0.323754 291.824 0.257404 286.471 0.396002C285.982 0.305861 285.613 0.219016 285.051 0.127022C281.569 0.194874 278.588 0.125391 275.655 0.141254C272.735 0.157138 273.846 0.229986 270.413 0.258045C269.778 0.263201 268.454 0.217604 266.89 0.251231C265.311 0.285035 259.486 0.536373 258.79 0.316805C255.845 0.315771 253.058 0.307742 250.175 0.304031C252.985 0.291652 255.796 0.279666 258.594 0.267291C256.2 0.214073 253.82 0.161015 251.425 0.1078C251.12 0.155247 250.813 0.203552 250.52 0.250381C244.068 0.30814 239.386 0.230564 232.873 0.248919C231.786 0.252012 234.351 0.34582 229.526 0.321914C224.7 0.297984 221.118 0.122896 212.895 0.190525C212.48 0.19403 210.045 0.328126 207.1 0.235295C206.43 0.214256 209.25 0.183124 207.712 0.155486C206.172 0.127846 199.302 0.105116 198.765 0.0393068C198.838 0.0626118 199.267 0.0867574 199.475 0.110474C198.302 0.121614 197.117 0.132756 195.932 0.143686C195.822 0.102641 195.703 0.0615354 195.594 0.0206926C188.848 0.116202 185.363 0.272005 175.368 0.220452C178.179 0.280065 180.99 0.339917 183.788 0.39953C184.558 0.357651 185.329 0.315492 186.086 0.273616C190.692 0.290323 195.311 0.306908 199.917 0.323615C200.675 0.275962 201.419 0.228445 202.177 0.180791C203.399 0.186981 204.608 0.192974 205.83 0.199163C205.524 0.233611 205.217 0.267879 204.899 0.302326C207.318 0.293872 209.74 0.285234 212.146 0.276779C207.247 0.480119 198.463 0.259484 199.097 0.429579C198.01 0.403188 196.921 0.376614 195.834 0.350016C195.358 0.432492 193.148 0.408756 189.251 0.395759C190.143 0.436396 191.128 0.476481 191.947 0.517533C188.159 0.460193 181.44 0.465761 177.517 0.443692C175.794 0.433997 177.515 0.374198 177.003 0.367169C174.375 0.330449 169.354 0.434788 168.303 0.426536C162.022 0.377431 157.941 0.179619 151.086 0.309991C158.161 0.342173 154.312 0.328582 156.829 0.400988C157.617 0.423692 166.758 0.47105 155.312 0.450017C153.97 0.447386 133.202 0.310708 140.029 0.205974C136.669 0.239395 134.038 0.278038 130.958 0.313519C123.431 0.0374995 126.036 0.296798 128.224 0.439552C126.989 0.440173 125.815 0.441622 124.544 0.441622C127.245 0.291649 113.486 0.282337 108.819 0.358046C107.255 0.383211 111.628 0.431217 108.011 0.453911C106.289 0.443393 104.335 0.429775 102.515 0.418021C105.155 0.512909 99.9747 0.549476 100.047 0.646002C96.736 0.559988 94.2031 0.377667 96.0232 0.278845C93.2863 0.318861 90.5355 0.358823 87.7986 0.399042C89.0697 0.421941 90.3567 0.444638 91.6278 0.467535C82.6827 0.406885 71.1816 0.544892 69.3118 0.342106C68.1266 0.343551 66.9289 0.3448 65.7437 0.346246C65.3768 0.380487 65.0226 0.414799 64.656 0.449044C59.2931 0.419343 53.9417 0.389447 48.5788 0.359747C53.3539 0.338495 54.491 0.289755 59.4987 0.329332C57.5689 0.289948 55.6032 0.250348 53.7099 0.210963C46.1706 0.316994 45.142 0.386683 33.7905 0.355126C33.2773 0.353681 24.7005 0.264763 24.4072 0.256098C23.0636 0.216492 25.1032 0.158955 24.5049 0.138942C22.843 0.0828306 12.7446 -0.0580594 12.9401 -0.0793071C15.4085 -0.34006 49.3851 -0.343516 58.5743 -0.356925C153.887 -0.495958 247.1 -0.30995 341.813 -0.341718C342.788 -0.34221 342.363 -0.380702 342.778 -0.382351C344.44 -0.38858 346.082 -0.365887 347.292 -0.348296C348.002 -0.338557 348.566 -0.271885 348.921 -0.225202C351.034 0.151191 349.89 -0.139947 351.402 0.303466C356.474 1.9931 360.01 7.07819 359.93 12.2842C359.92 22.4086 359.907 32.3973 359.914 42.7858C359.914 43.7894 359.871 42.7648 359.877 44.5272C359.884 45.4369 359.95 48.285 359.95 50.3381C359.954 57.5096 359.934 63.5337 359.934 71.097C359.934 75.2337 359.93 81.4396 359.93 86.0647C359.93 88.1075 359.96 90.2357 359.963 92.2539C359.963 95.1176 359.9 94.5329 359.897 94.9734C359.881 96.9069 359.95 97.1747 359.947 99.0105C359.944 102.425 359.897 102.609 359.904 106.941C359.904 110.037 359.94 117.124 359.954 121.028C359.897 130.158 359.92 141.663 359.937 150.181C359.947 155.223 359.884 155.69 359.884 157.746C359.884 164.99 359.967 170.488 359.97 177.292C359.973 186.322 359.92 194.324 359.914 203.073C359.914 204.491 359.973 204.165 359.977 205.557C359.98 210.71 359.993 217.298 359.983 221.888C359.973 227.003 359.887 228.89 359.907 233.895C359.91 235.362 359.987 235.792 359.997 238.251C360.01 242.179 359.944 246.486 359.937 249.228C359.927 252.985 360.003 249.717 359.993 254.784C359.993 254.992 359.937 255.75 359.94 256.838C359.947 260.008 359.99 259.693 359.987 264.332C359.987 264.777 359.934 270.927 359.934 271.539C359.934 275.136 359.914 282.38 359.927 284.51C359.967 292.123 360.05 286.13 359.871 292.604C359.914 295.455 359.957 298.282 360 301.304C359.96 299.287 359.904 307.472 359.907 308.048C359.937 312.806 360.007 309.971 359.993 316.004C359.834 308.037 359.973 323.787 359.977 327.3C359.997 344.213 359.957 359.588 359.96 376.584C359.96 382.275 359.993 389.903 359.993 395.923C359.993 397.325 359.954 396.265 359.954 397.501C359.954 398.733 359.997 397.364 359.993 398.773C359.98 407.524 359.897 414.377 360 422.394C359.983 422.786 359.973 422.772 359.957 423.417C360.046 429.978 359.927 442.612 359.91 447.36C359.884 454.788 359.944 456.685 359.93 462.08C359.917 469.216 359.798 479.927 359.993 475.143C360 480.037 360 484.751 359.983 489.694C359.98 490.242 359.93 489.864 359.93 490.083C359.924 491.478 359.967 491.933 359.97 492.877C359.973 495.372 359.924 491.452 359.934 494.664C359.937 494.744 359.934 494.83 359.934 494.92C359.692 496.844 360.299 498.488 356.849 503.026C354.51 505.737 350.938 507.398 347.292 507.375C318.076 507.375 287.05 507.365 257.58 507.358C255.32 507.358 256.808 507.405 253.973 507.401C244.124 507.391 226.495 507.312 218.002 507.322C209.51 507.332 211.426 507.405 206.112 507.435C205.085 507.438 205.927 507.398 204.998 507.398C198.754 507.395 191.31 507.332 186.251 507.322C182.905 507.315 183.173 507.378 180.853 507.385C177.394 507.391 173.835 507.325 171.99 507.325C163.316 507.315 157.352 507.365 149.251 507.338C149.568 507.355 149.778 507.368 150.046 507.382C140.454 507.378 130.875 507.375 121.284 507.375C121.736 507.388 122.173 507.398 122.625 507.411C111.371 507.405 112.655 507.269 113.645 507.561C112.827 507.571 111.959 507.581 111.177 507.591C111.495 507.441 104.688 507.332 96.0245 507.292C95.3893 507.288 91.1259 507.435 91.5903 507.262C90.4781 507.305 89.8157 507.335 88.8746 507.372C87.0423 507.318 85.1851 507.265 83.3528 507.215C82.3633 507.222 81.3599 507.229 80.3705 507.239C80.2238 507.272 80.3366 507.308 80.0188 507.342C75.4248 507.345 66.0024 507.305 62.3723 507.308C53.3539 507.318 44.1727 507.411 37.1589 507.312C33.742 507.322 37.135 507.388 32.0536 507.382C31.4794 507.345 30.9395 507.315 30.341 507.279C26.1881 507.431 25.3203 507.338 19.6292 507.305C17.0502 507.292 15.0675 507.305 12.9373 507.312C11.8283 507.312 10.6784 507.179 9.44655 506.827C8.5074 506.534 8.65743 506.524 8.03588 506.279C6.99732 505.867 5.07255 504.784 3.65973 503.235C2.21021 501.717 1.34911 499.857 1.08458 499.113C0.543692 497.674 0.279275 496.159 0.27892 494.664C0.268781 482.814 0.275787 472.226 0.290328 460.622C0.291975 459.227 0.248268 461.037 0.250122 459.592C0.253032 457.27 0.320193 458.635 0.323488 457.29C0.332302 453.536 0.261481 453.506 0.257775 448.27C0.24563 431.025 0.29883 411.201 0.303568 393.185C0.303568 392.624 0.262073 392.657 0.261661 392.046C0.259633 388.056 0.315723 384.019 0.315107 380.398C0.314283 374.388 0.25599 369.873 0.256196 363.937C0.256401 352.332 0.28625 341.967 0.287898 330.036C0.28934 320.269 0.283806 311.787 0.284012 301.079C0.284835 254.303 0.153126 206.571 0.223156 159.477C0.225009 158.279 0.26167 158.767 0.260082 158.401C0.244223 154.926 0.194757 154.615 0.298344 153.379C0.277929 148.951 0.200105 147.554 0.205665 142.207C0.20858 139.358 0.329201 141.485 0.267006 136.664C0.210781 132.31 0.144676 137.115 0.212224 124.168C0.214081 123.825 0.287605 122.138 0.268464 119.446C0.249514 116.742 0.196867 119.872 0.181007 113.361C0.143937 98.076 0.20749 78.7283 0.187931 60.9587C0.186695 59.8451 0.147388 49.1191 0.129262 47.0019C0.0940428 42.9047 0.0394058 43.7608 0.0260153 38.439C0.0157167 34.3265 0.0776076 30.9339 0.065249 26.0996C0.0637471 25.5365 8.50697e-05 24.5933 0.00852406 20.9604ZM358.985 439.892C358.922 438.888 358.693 437.078 358.763 431.011C358.769 430.433 358.929 433.54 358.952 430.188C358.968 433.467 358.975 436.662 358.985 439.892ZM11.8254 0.856953C7.46562 1.21678 3.47842 4.35418 2.07066 8.51294C3.02141 5.64763 5.16569 3.18959 7.87786 1.84784C9.13093 1.28104 10.4666 0.948143 11.8254 0.856953ZM59.2921 506.252C59.2878 506.252 59.2835 506.252 59.2791 506.252C64.0447 506.225 68.8129 506.195 73.5788 506.166C73.0776 506.186 72.5754 506.209 72.0746 506.229C68.3117 506.265 64.5469 506.298 60.7964 506.332C60.2955 506.305 59.793 506.279 59.2921 506.252ZM21.6414 506.485C18.5987 506.458 19.3433 506.415 17.6692 506.372C17.2274 506.362 15.1695 506.352 14.3743 506.352C14.6675 506.378 15.0463 506.405 15.3641 506.431C14.6155 506.438 13.7915 506.441 12.9373 506.445C9.2585 506.594 5.67034 504.089 4.93241 503.152C4.52202 502.697 4.59029 502.784 5.53531 503.564C6.48434 504.265 8.46922 505.92 12.3775 506.152C12.1162 506.176 11.8677 506.189 11.6036 506.196C12.0443 506.245 12.4891 506.272 12.9373 506.269C21.4633 506.269 30.0011 506.345 21.6414 506.485ZM358.885 367.957C358.773 360.319 358.749 357.87 358.826 348.608C358.859 349.914 358.892 351.223 358.922 352.532C358.889 354.063 358.859 355.582 358.826 357.11C358.826 357.116 358.826 357.12 358.826 357.123C358.859 357.429 358.892 357.738 358.929 358.03C358.915 361.336 358.899 364.654 358.885 367.957ZM1.21603 229.835C1.44228 227.706 1.31077 228.32 1.36179 234.4C1.3795 236.505 1.41909 234.453 1.42568 235.763C1.46168 242.834 1.31009 243.4 1.23121 241.822C1.22586 237.819 1.22097 233.776 1.21603 229.848C1.21603 229.843 1.21603 229.839 1.21603 229.835ZM1.16902 46.3564C1.16902 46.3521 1.16902 46.3478 1.16902 46.3435C1.22421 46.1598 1.23905 49.0105 1.29134 45.7953C1.29113 48.2414 1.29069 50.6872 1.29049 53.1456C1.28535 52.4247 1.28045 51.6882 1.27531 50.9673C1.25636 51.6035 1.23716 52.2417 1.21822 52.8782C1.28165 53.7469 1.24478 54.5546 1.22356 57.1239C1.29132 56.414 1.35913 55.7077 1.42689 54.9977C1.40672 57.9834 1.38646 60.9796 1.36628 63.9653C1.34921 64.0018 1.3321 64.0394 1.31502 64.0762C1.33685 65.2018 1.35891 66.3157 1.38074 67.4413C1.36035 67.7472 1.34015 68.0419 1.31976 68.3479C1.3352 69.706 1.35064 71.0661 1.36628 72.4242C1.3169 72.8375 1.29556 69.8442 1.3081 75.15C1.25744 73.5225 1.20693 71.8986 1.15627 70.2588C1.16039 62.2916 1.1647 54.3233 1.16902 46.3564ZM1.28563 285.146C1.27615 276.371 1.31195 278.843 1.42398 280.874C1.37785 282.293 1.33175 283.727 1.28563 285.146ZM236.365 506.435C238.907 506.358 241.459 506.282 244.062 506.205C249.243 506.166 254.426 506.305 250.528 506.358C245.836 506.425 240.935 506.352 236.365 506.435ZM353.837 504.398C348.271 507.149 353.625 504.724 354.557 503.644C355.867 502.637 357.791 500.85 358.667 497.083C358.083 500.747 354.743 503.953 353.837 504.398ZM134.353 506.348C131.812 506.348 129.285 506.372 127.014 506.345C127.699 506.272 132.243 506.338 128.993 506.229C130.618 506.229 132.245 506.225 133.858 506.225C132.833 506.269 134.211 506.302 134.346 506.348C134.348 506.348 134.35 506.348 134.353 506.348ZM1.37175 370.166C1.28524 375.159 1.32226 376.103 1.3822 381.136C1.31176 381.843 1.19378 375.847 1.16781 372.089C1.23577 371.452 1.30378 370.814 1.37175 370.166ZM164.611 0.664616C165.808 0.574698 174.64 0.562974 179.028 0.589555C178.505 0.60289 177.981 0.616405 177.458 0.629946C173.181 0.641497 168.888 0.653065 164.611 0.664616ZM358.909 495.279C358.872 495.92 358.786 496.525 358.667 497.083C358.799 496.462 358.876 495.847 358.909 495.279ZM359.313 229.44C359.4 231.532 359.429 225.314 359.396 232.864C359.373 237.857 359.366 238.96 359.36 243.586C359.254 241.921 359.214 232.536 359.191 245.471C359.191 245.641 359.254 245.302 359.247 247.369C359.244 248.007 359.191 250.048 359.174 253.154C359.171 254.157 359.154 261.699 359.154 251.419C359.078 251.725 359.002 251.173 358.925 251.197C358.905 247.184 359.055 244.1 359.051 239.856C359.045 233.553 358.895 230.345 359.091 229.134C359.141 234.434 359.141 243.534 359.021 244.721C359.021 249.848 359.118 251.32 359.167 247.186C359.104 229.477 359.31 242.324 359.234 226.818C359.204 226.635 359.174 225.997 359.151 226.095C359.247 221.361 359.284 228.694 359.313 229.44ZM359.104 266.471C359.048 263.412 358.988 260.362 358.932 257.314C359.025 257.315 359.111 258.995 359.164 263.817C359.144 264.697 359.124 265.591 359.104 266.471ZM358.667 9.17136C358.514 8.76253 358.093 7.68313 357.655 6.96829C357.545 6.72923 356.52 4.60955 354.371 2.9783C352.278 1.27739 349.173 0.495328 347.292 0.546775C345.243 0.532776 344.579 0.518783 347.292 0.504703C347.677 0.502876 348.125 0.518214 348.642 0.575256C349.419 0.630228 352.341 1.1817 354.646 3.11713C357.028 4.9623 358.328 7.9177 358.667 9.17136ZM1.29449 335.496C1.2601 338.09 1.22565 340.672 1.19125 343.256C1.16943 339.28 1.14704 335.303 1.12481 331.327C1.18136 332.718 1.23795 334.1 1.29449 335.496ZM278.535 506.524C277.441 506.521 281.075 506.451 276.764 506.461C279.977 506.418 282.987 506.378 286.128 506.335C287.069 506.368 288.019 506.401 288.96 506.435C289.693 506.415 290.441 506.395 291.174 506.372C290.734 506.421 290.342 506.468 289.878 506.518C284.587 506.415 283.374 506.531 278.535 506.524ZM121.205 506.714C120.254 506.607 127.916 506.544 120.378 506.528C121.808 506.458 124.107 506.421 128.518 506.415C129.226 506.441 129.933 506.468 130.641 506.494C130.739 506.425 131.874 506.398 134.353 506.348C134.355 506.348 134.357 506.348 134.359 506.348C141.065 506.342 140.665 506.365 142.277 506.485C135.178 506.418 134.965 506.524 130.126 506.588C126.803 506.631 122.464 506.611 121.205 506.714ZM359.081 32.5662C358.992 27.5381 358.909 32.0504 359.005 23.1291C359.028 23.7043 359.048 24.2822 359.071 24.8574C359.075 27.427 359.078 29.9967 359.081 32.5662ZM96.4285 506.352C97.0027 506.514 101.729 506.644 102.536 506.375C97.9295 506.322 100.18 506.471 96.4285 506.352ZM352.086 505.657C349.959 506.571 348.314 506.627 347.292 506.617C344.898 506.571 345.524 506.481 347.292 506.415C347.694 506.398 348.148 506.362 348.636 506.295C349.183 506.265 349.737 506.195 350.268 506.093C351.747 505.691 353.144 504.996 354.354 504.063C353.671 504.674 352.908 505.212 352.086 505.657ZM1.08825 440.659C1.20503 447.44 1.1532 433.34 1.22611 438.078C1.28439 441.858 1.16672 446.842 1.09298 444.958C1.09092 443.646 1.08948 442.191 1.08825 440.672C1.08825 440.669 1.08825 440.662 1.08825 440.659ZM1.12165 479.894C1.24643 478.781 1.21006 480.386 1.1876 475.03C1.18122 473.499 1.22808 461.343 1.12469 466.446C1.12469 470.791 1.12288 475.379 1.12165 479.894ZM359.085 405.972C359.138 405.892 359.257 415.251 359.227 416.454C359.148 419.696 359.134 409.823 359.025 414.105C359.121 404.62 358.885 401.783 359.197 402.444C359.211 408.032 359.148 405.388 359.085 405.972ZM48.6504 0.40841C48.6461 0.40841 48.6418 0.40841 48.6371 0.40841C49.265 0.410968 54.4366 0.490843 53.8077 0.518507C47.5886 0.494786 48.6968 0.442213 42.907 0.528606C42.5895 0.50078 42.3175 0.47379 41.9759 0.445758C44.2733 0.429253 45.5467 0.395826 48.6504 0.40841ZM339.086 0.368992C341.136 0.356225 344.702 0.402374 347.292 0.40948C347.591 0.410327 347.87 0.42143 348.138 0.439864C347.856 0.427795 347.578 0.425177 347.292 0.431848C339.209 0.622554 330.269 0.423599 339.086 0.368992ZM1.17679 132.17C1.17688 132.177 1.17696 132.183 1.17704 132.19C1.17692 132.188 1.1768 132.185 1.17667 132.183C1.17671 132.179 1.17675 132.175 1.17679 132.17ZM359.055 162.624C359.068 162.329 359.081 162.162 359.094 162.103C359.094 162.103 359.094 162.103 359.098 162.103C359.081 162.262 359.068 162.432 359.055 162.624ZM359.068 386.518C359.144 382.621 359.264 395.61 359.237 399.81C359.201 399.517 359.171 399.471 359.131 398.786C359.22 395.394 359.055 387.165 359.068 386.518ZM178.332 506.485C188.585 506.488 175.243 506.787 174.693 506.548C174.713 506.541 178.068 506.485 178.332 506.485ZM359.098 467.492C359.191 470.11 359.214 464.851 359.197 473.259C359.174 473.748 359.151 474.236 359.128 474.725C359.118 472.316 359.108 469.904 359.098 467.492ZM245.494 506.877C258.398 506.827 270.739 506.737 262.334 506.488C261.357 506.495 260.367 506.504 259.39 506.511C259.244 506.634 255.64 506.568 250.365 506.564C249.613 506.611 246.688 506.624 246.139 506.664C245.078 506.744 248.439 506.8 245.494 506.877ZM0.940541 200.76C0.961342 200.968 0.982256 201.172 1.00286 201.38C1.02633 203.424 1.0497 205.473 1.07318 207.517C1.03326 207.187 0.993339 206.856 0.953415 206.526C0.949093 204.605 0.944744 202.694 0.940419 200.773C0.940458 200.769 0.940502 200.765 0.940541 200.76ZM359.363 279.065C359.134 277.891 359.177 281.993 359.29 290.315C359.317 286.57 359.34 282.81 359.363 279.065ZM38.1484 506.783C37.88 506.72 37.6153 506.654 37.3347 506.591C32.9233 506.657 33.7424 506.73 35.8563 506.817C36.6255 506.807 37.3795 506.797 38.1484 506.783ZM0.807293 475.06C0.79372 476.894 0.846242 475.957 0.84519 476.15C0.817589 480.788 0.793494 481.442 0.833043 487.133C0.846839 487.831 0.861347 488.515 0.875558 489.213C1.01187 486.581 0.937573 484.671 1.01767 479.103C0.970915 480.11 0.924096 481.106 0.877136 482.11C0.887018 479.017 0.896767 475.934 0.906651 472.838C0.892232 472.469 0.877949 472.103 0.86353 471.735C0.844998 472.838 0.824174 473.974 0.807293 475.06ZM0.999694 177.125C1.00505 174.115 1.01062 171.09 1.01597 168.079C0.982402 167.969 0.948602 167.864 0.915033 167.754C0.943245 170.873 0.971483 174.005 0.999694 177.125ZM359.257 217.251C359.247 217.012 359.234 216.78 359.224 216.573C359.237 216.593 359.247 216.854 359.257 217.251ZM40.7191 0.22398C37.3105 0.200469 32.3983 0.215907 28.6594 0.210963C28.9533 0.295313 38.4565 0.271998 41.7934 0.32313C42.3298 0.307994 42.16 0.233876 40.7191 0.22398ZM339.952 506.647C339.099 506.691 338.244 506.734 337.401 506.774C335.335 506.77 333.265 506.764 331.189 506.76C331.127 506.793 331.067 506.83 331.006 506.863C340.158 506.82 338.048 506.92 342.579 507.016C341.697 506.893 340.834 506.77 339.952 506.647ZM0.78154 81.3329C0.804815 87.9537 0.848285 90.3025 0.951474 86.57C0.927794 84.2332 0.904094 81.8827 0.880414 79.5459C0.847469 80.1456 0.814488 80.7456 0.78154 81.3329ZM359.337 96.6691C359.297 91.1287 359.436 91.0367 359.36 85.6212C359.333 88.5211 359.307 91.4207 359.28 94.3083C359.3 95.0884 359.317 95.8887 359.337 96.6691ZM359.715 368.408C359.764 366.07 359.536 361.701 359.705 355.13C359.655 353.562 359.605 352.582 359.556 351.236C359.609 350.452 359.665 349.562 359.718 348.814C359.718 348.811 359.718 348.808 359.718 348.801C359.701 342.841 359.632 346.708 359.575 346.572C359.552 346.509 359.592 342.087 359.539 343.469C359.453 345.854 359.502 354.771 359.393 354.797C359.429 351.661 359.4 345.545 359.33 347.356C359.25 349.336 359.383 355.103 359.317 358.774C359.489 353.512 359.436 364.379 359.303 365.614C359.406 371.993 359.446 366.133 359.443 359.595C359.542 363.585 359.489 357.714 359.572 356.748C359.622 360.86 359.582 374.98 359.715 368.408ZM191.753 506.92C196.154 506.913 203.027 506.97 206.04 506.883C207.795 506.833 200.904 506.797 205.656 506.717C201.369 506.724 200.391 506.757 201.124 506.823C200.147 506.833 199.157 506.84 198.18 506.85C197.728 506.837 197.265 506.823 196.813 506.81C196.3 506.837 195.784 506.867 195.282 506.893C194.245 506.887 193.195 506.883 192.157 506.877C192.035 506.89 191.827 506.903 191.753 506.92ZM291.466 0.227265C292.687 0.226441 293.897 0.225621 295.119 0.224588C294.984 0.207861 294.824 0.190442 294.669 0.17325C294.559 0.159666 294.448 0.146081 294.337 0.132494C295.045 0.181031 300.865 0.2617 303.317 0.209867C304.55 0.183864 301.744 0.0915513 306.97 0.0754387C303.183 0.0801861 299.675 0.0927838 295.998 0.100621C296.328 0.0731863 296.644 0.0454528 296.975 0.0180183C296.972 0.0179784 296.97 0.0179352 296.968 0.0178954C295.746 0.0117095 294.51 0.00522464 293.289 -0.000961248C292.678 0.0751597 292.077 0.151144 291.466 0.227265ZM41.7301 506.913C45.8969 506.86 47.2917 506.83 45.3244 506.744C45.3201 506.744 45.3158 506.744 45.3115 506.744C43.7598 506.783 42.2071 506.82 40.6557 506.86C41.01 506.877 41.3632 506.896 41.7301 506.913ZM359.546 181.303C359.214 172.43 359.416 192.412 359.529 188.607C359.536 188.436 359.509 182.135 359.546 181.303ZM353.585 504.99C351.707 506.146 349.508 506.767 347.292 506.764C347.037 506.764 346.782 506.764 346.523 506.764C346.778 506.784 347.037 506.803 347.292 506.82C347.611 506.843 347.926 506.853 348.244 506.85C350.145 506.664 351.996 506.016 353.585 504.99ZM0.63165 110.159C0.541022 112.722 0.508187 119.303 0.606749 122.518C0.618282 120.829 0.629832 119.14 0.641369 117.451C0.65269 120.644 0.665159 123.801 0.675863 127.018C0.802125 127.19 0.728875 123.481 0.763684 117.901C0.7693 117.037 0.926026 111.513 0.8079 109.605C0.78362 109.221 0.767111 115.098 0.696514 111.014C0.690958 112.8 0.692189 114.341 0.689104 116.029C0.659032 116.151 0.628927 116.273 0.598855 116.407C0.609741 114.32 0.620764 112.247 0.63165 110.159ZM217.37 506.91C223.414 506.916 224.16 506.867 225.419 506.777C222.608 506.787 219.797 506.797 216.986 506.807C217.12 506.84 217.236 506.873 217.37 506.91ZM0.602742 164.264C0.588157 167.578 0.66073 166.159 0.674529 167.492C0.726424 172.534 0.674556 175.973 0.707083 180.954C0.693075 180.623 0.679982 180.32 0.666389 180.001C0.666389 180.006 0.666389 180.01 0.666389 180.014C0.605223 203.597 0.769811 191.21 0.743036 177.099C0.770016 176.769 0.797034 176.451 0.823812 176.121C0.776647 169.806 0.73126 163.983 0.602742 164.264ZM359.556 260.132C359.572 259.862 359.682 262.151 359.632 257.856C359.473 254.454 359.552 260.033 359.492 261.43C359.476 260.267 359.463 259.078 359.446 257.928C359.403 264.879 359.439 265.894 359.556 263.36C359.562 263.179 359.539 260.402 359.556 260.132ZM359.635 214.447C359.403 213.492 359.506 222.265 359.579 221.946C359.582 220.736 359.542 219.794 359.559 218.51C359.575 217.212 359.632 216.881 359.635 214.447ZM359.579 465.791C359.579 465.532 359.675 462.951 359.599 463.207C359.42 466.403 359.536 472.838 359.599 471.711C359.595 469.585 359.569 468.163 359.579 465.791ZM0.577234 70.2329C0.570789 70.3551 0.531784 76.7972 0.568003 77.6284C0.608776 78.3137 0.652478 78.6536 0.69469 79.1675C0.655556 75.6185 0.685369 68.4346 0.577234 70.2458C0.577234 70.2415 0.577234 70.2372 0.577234 70.2329Z" fill="url(#paint0_linear_2005_407)" fill-opacity="0.6"/>
</g>
<defs>
<linearGradient id="paint0_linear_2005_407" x1="180.115" y1="0.324419" x2="180.115" y2="506.624" gradientUnits="userSpaceOnUse">
<stop stop-color="#F9F8F3"/>
<stop offset="1" stop-color="#E7BA90"/>
</linearGradient>
<clipPath id="clip0_2005_407">
<rect width="360" height="508" fill="white"/>
</clipPath>
</defs>
</svg>
